<?xml version="1.0" standalone="no"?>
<!DOCTYPE svg PUBLIC "-//W3C//DTD SVG 20010904//EN"
 "http://www.w3.org/TR/2001/REC-SVG-20010904/DTD/svg10.dtd">
<svg version="1.0" xmlns="http://www.w3.org/2000/svg"
 width="1080.000000pt" height="1080.000000pt" viewBox="0 0 1080.000000 1080.000000"
 preserveAspectRatio="xMidYMid meet">
<metadata>
Created by potrace 1.14, written by Peter Selinger 2001-2017
</metadata>
<g transform="translate(0.000000,1080.000000) scale(0.100000,-0.100000)"
fill="#000000" stroke="none">
<path d="M0 5400 l0 -5400 5400 0 5400 0 0 5400 0 5400 -5400 0 -5400 0 0
-5400z m4640 3939 c49 -11 78 -32 91 -66 11 -29 45 -30 130 -3 42 14 88 21
134 20 39 -1 90 2 114 6 36 5 47 3 58 -12 23 -31 16 -73 -17 -103 -36 -32 -33
-49 15 -85 40 -31 56 -32 79 -7 17 19 30 23 131 41 28 4 78 20 112 34 85 35
145 35 172 0 50 -64 -3 -134 -102 -134 -18 0 -42 -7 -52 -15 -76 -58 -115 -85
-124 -85 -5 0 -13 -5 -17 -11 -14 -23 19 -25 74 -7 31 11 98 23 147 28 163 16
191 29 161 75 -22 33 -13 45 33 45 30 0 40 -5 51 -25 13 -24 40 -35 40 -16 0
16 63 49 107 56 34 5 46 14 67 46 14 21 36 41 49 44 34 9 73 -10 93 -44 23
-40 70 -44 84 -7 11 29 56 66 82 66 23 0 78 -52 78 -73 0 -8 7 -20 15 -27 21
-17 19 -40 -5 -65 -18 -20 -19 -23 -5 -35 8 -7 15 -19 15 -27 0 -21 60 -9 80
15 8 10 23 21 33 25 10 4 16 11 12 16 -3 6 -12 8 -19 5 -7 -3 -19 2 -26 11
-11 13 -8 15 17 15 16 0 38 -7 49 -15 10 -8 33 -15 51 -15 17 0 34 -4 37 -9 4
-5 29 -12 56 -16 27 -4 53 -11 56 -17 4 -6 22 -16 40 -24 54 -23 95 11 72 61
-16 36 8 53 85 61 95 10 154 -13 231 -88 34 -33 71 -67 84 -75 13 -9 35 -36
49 -60 14 -25 37 -49 50 -54 32 -12 185 -11 303 2 52 6 201 12 330 14 185 2
244 6 275 18 51 21 104 22 111 2 3 -8 2 -27 -3 -42 -8 -24 -17 -29 -55 -34
-25 -4 -58 -14 -74 -22 -27 -13 -77 -19 -291 -32 -113 -8 -153 -14 -153 -25 0
-17 70 -32 113 -24 23 4 67 7 97 6 123 -6 438 -33 477 -42 85 -20 149 -5 197
46 43 46 76 63 156 80 105 23 129 26 170 19 103 -17 154 -174 95 -290 -24 -49
-23 -64 10 -87 17 -12 9 -112 -13 -160 -11 -26 -29 -51 -41 -57 -31 -17 -43
18 -45 128 0 53 -5 99 -11 103 -5 4 -21 8 -33 8 -36 0 -90 60 -98 107 -10 63
-19 72 -44 40 -12 -14 -39 -31 -60 -37 -32 -9 -41 -17 -50 -46 -9 -25 -37 -56
-101 -110 -50 -41 -94 -74 -100 -74 -5 0 -28 -17 -52 -38 -23 -22 -75 -62
-114 -91 -101 -73 -113 -90 -113 -165 -1 -33 -7 -90 -14 -126 -14 -73 -21 -62
-30 49 -2 35 -8 67 -14 73 -9 9 -82 -96 -106 -154 -7 -18 -24 -79 -36 -136
-16 -70 -31 -110 -46 -127 -12 -13 -29 -48 -37 -77 -37 -130 -67 -259 -67
-287 0 -17 -4 -31 -10 -31 -5 0 -7 6 -5 13 2 6 0 28 -5 47 -5 22 -8 -139 -7
-428 l2 -463 25 -20 c68 -54 65 -54 122 -22 92 52 92 52 96 446 2 185 7 337
12 337 17 0 20 -42 20 -310 0 -270 4 -340 20 -340 5 0 30 30 56 67 26 37 75
96 109 131 33 35 63 72 66 81 4 9 13 22 22 29 12 10 13 8 9 -15 -4 -22 -2 -25
13 -20 15 6 15 4 -3 -25 -20 -32 -76 -105 -119 -156 -13 -15 -23 -32 -23 -38
0 -6 -6 -17 -14 -23 -8 -7 -53 -70 -99 -140 -63 -94 -100 -138 -140 -169 -34
-25 -66 -61 -86 -96 -42 -76 -106 -105 -162 -76 -45 25 -80 151 -65 233 4 19
20 54 36 78 35 51 37 80 18 266 -9 94 -9 173 0 354 7 128 8 237 4 241 -5 5
-19 -19 -32 -54 -12 -35 -51 -130 -86 -212 -76 -177 -78 -194 -40 -448 14 -90
28 -203 31 -253 10 -131 24 -206 46 -233 42 -54 31 -145 -23 -184 l-28 -19 0
-198 c0 -253 6 -318 31 -324 27 -7 52 -73 46 -119 -3 -20 -14 -49 -26 -64 -12
-15 -21 -32 -21 -39 0 -11 84 -54 137 -69 22 -7 37 -32 27 -47 -10 -17 -53 -9
-101 20 -26 16 -58 32 -70 36 -26 7 -30 -6 -39 -161 l-6 -111 28 -22 c16 -12
36 -20 47 -17 10 2 27 -4 37 -14 10 -10 38 -24 62 -31 74 -20 88 -29 88 -62 0
-17 -7 -38 -15 -48 -12 -12 -18 -53 -24 -145 -5 -71 -7 -133 -4 -137 3 -4 11
-3 19 4 10 9 18 9 25 2 8 -8 5 -25 -10 -58 -15 -34 -21 -68 -21 -121 0 -84 -5
-79 105 -107 33 -8 68 -18 77 -22 21 -8 127 100 128 130 0 12 12 26 32 35 18
8 50 40 73 72 22 31 87 118 144 195 58 76 116 158 130 183 14 25 35 53 48 63
12 10 25 26 28 37 7 23 -10 60 -29 60 -15 0 -30 29 -21 38 3 4 19 1 34 -5 16
-6 40 -9 53 -6 13 2 48 -5 78 -17 30 -12 75 -22 100 -22 66 1 126 -29 134 -65
7 -29 -16 -107 -50 -171 -17 -32 -17 -71 -3 -162 13 -85 -4 -164 -55 -249 -20
-33 -36 -76 -40 -104 -6 -53 -34 -109 -51 -104 -6 2 -10 38 -10 85 1 45 -1 82
-3 82 -16 0 -60 -33 -72 -54 -16 -32 -33 -33 -52 -4 l-14 21 -110 -26 c-60
-14 -126 -29 -146 -32 -47 -7 -50 -30 -7 -53 50 -27 78 -54 98 -97 17 -34 18
-42 6 -54 -12 -12 -23 -12 -72 -2 -79 18 -111 35 -159 87 -23 24 -49 44 -58
44 -24 0 -66 -45 -66 -70 0 -17 -6 -21 -27 -20 -48 3 -51 1 -94 -62 -24 -35
-63 -85 -87 -113 -25 -27 -56 -75 -70 -105 -14 -30 -42 -76 -64 -101 -36 -44
-38 -51 -38 -115 0 -38 -6 -91 -14 -119 -7 -27 -11 -56 -9 -62 7 -21 -13 -14
-23 7 -9 20 -10 20 -41 -7 l-32 -28 -7 -190 c-6 -178 -5 -191 13 -207 21 -20
30 -15 62 30 17 24 28 31 42 27 10 -4 19 -3 19 2 0 4 9 23 20 41 18 28 23 32
36 21 22 -18 14 -62 -14 -74 -13 -5 -26 -21 -29 -35 -8 -32 -20 -47 -67 -81
-24 -18 -48 -49 -66 -86 -29 -63 -57 -93 -134 -145 -36 -24 -52 -43 -62 -73
-14 -43 -46 -75 -74 -75 -35 0 -41 68 -10 115 17 26 20 47 20 162 0 128 -13
227 -30 238 -5 3 -16 -8 -26 -23 -9 -16 -30 -37 -45 -46 l-29 -17 0 28 c0 33
25 73 45 73 12 0 10 8 -6 40 -14 27 -19 49 -15 66 9 36 50 74 80 74 21 0 29 9
47 50 12 28 39 65 59 83 38 32 38 32 43 123 l4 92 -49 -2 c-61 -1 -83 21 -94
92 -8 56 -19 72 -49 72 -12 0 -48 13 -79 29 l-57 29 -10 -27 c-19 -53 -35 -75
-63 -90 -81 -44 -86 -96 -26 -266 21 -60 57 -163 80 -228 22 -64 43 -141 46
-170 3 -28 10 -64 16 -79 8 -22 5 -37 -18 -82 -15 -31 -42 -70 -59 -88 -43
-46 -59 -73 -88 -153 -14 -39 -33 -87 -41 -107 -9 -21 -12 -38 -7 -38 5 0 13
9 16 20 12 36 25 21 25 -29 0 -32 -8 -66 -24 -98 -13 -26 -27 -69 -31 -96 -7
-46 -19 -66 -33 -53 -7 8 -5 84 4 139 5 30 3 37 -11 37 -16 0 -65 -90 -65
-122 0 -9 -4 -19 -10 -23 -5 -3 -39 -49 -75 -103 -36 -53 -81 -116 -99 -139
-19 -23 -36 -48 -39 -55 -2 -7 -8 -9 -13 -5 -4 4 -2 22 5 40 7 18 17 52 21 77
14 78 28 111 70 156 63 69 134 191 182 314 l9 24 -21 -19 c-12 -11 -73 -85
-134 -165 -73 -94 -139 -167 -188 -208 -42 -34 -101 -91 -132 -125 -48 -52
-57 -67 -52 -89 6 -32 -12 -48 -29 -25 -11 15 -13 15 -29 -2 -15 -16 -15 -22
-4 -40 11 -18 11 -23 -2 -31 -22 -14 -34 -12 -21 3 17 22 1 28 -30 11 -35 -17
-35 -26 -8 -115 18 -60 19 -75 9 -118 -12 -51 -56 -106 -98 -122 -35 -14 -110
-11 -141 5 -41 22 -64 82 -59 156 5 68 26 105 75 129 27 14 32 24 43 83 6 37
9 72 5 78 -4 6 -6 172 -6 370 0 346 -1 360 -19 360 -10 0 -22 5 -26 12 -4 6
-3 8 4 4 6 -3 22 -2 36 4 25 9 26 12 26 103 l0 93 -47 3 c-87 4 -297 47 -364
75 -13 6 -17 -3 -21 -52 -7 -77 -30 -120 -74 -138 -57 -24 -123 -6 -181 48
l-31 30 -62 -42 c-40 -27 -60 -47 -56 -56 4 -10 -2 -14 -19 -14 -14 0 -42 -16
-67 -39 -51 -46 -238 -174 -244 -168 -3 3 35 34 83 69 48 36 97 75 107 87 19
21 19 21 -5 21 -13 0 -60 -11 -104 -25 -44 -15 -114 -37 -155 -50 -111 -36
-240 -66 -250 -60 -14 9 -12 25 2 25 15 0 420 122 573 172 103 34 185 87 185
119 0 47 -75 89 -755 432 -207 105 -222 111 -274 109 -30 -1 -59 -6 -65 -11
-12 -9 -129 -58 -231 -96 l-59 -22 -33 -99 c-33 -99 -41 -144 -24 -144 5 0 19
-19 30 -43 20 -40 20 -47 7 -90 -11 -37 -11 -49 -2 -55 7 -4 18 -21 25 -39 7
-17 42 -62 77 -99 35 -36 73 -82 85 -100 11 -19 31 -42 43 -51 12 -10 21 -23
19 -29 -2 -5 27 -45 64 -89 125 -144 234 -265 241 -265 4 0 25 16 47 35 55 48
70 44 17 -4 -23 -21 -42 -41 -42 -44 0 -9 92 -142 104 -149 6 -4 15 -8 20 -8
12 0 -3 262 -16 278 -7 8 -7 12 0 12 6 0 49 29 96 65 126 95 141 98 48 9 -46
-43 -84 -86 -86 -95 -1 -10 -7 -24 -14 -31 -9 -11 -10 -42 -3 -124 9 -112 21
-156 48 -187 30 -32 6 -28 -51 8 -43 27 -58 32 -62 22 -3 -8 -4 -18 -3 -23 4
-21 -2 -44 -10 -44 -5 0 -14 23 -21 50 -7 28 -17 50 -23 51 -56 2 -103 13
-170 36 -76 27 -79 29 -129 102 -59 85 -163 199 -173 189 -13 -13 16 -116 40
-140 24 -25 49 -77 41 -85 -3 -3 -18 3 -34 12 -27 17 -31 17 -53 1 -13 -9 -33
-16 -44 -16 -33 0 -114 56 -119 82 -12 57 -12 77 -2 81 13 5 93 -7 119 -18 14
-6 17 -2 17 31 -1 100 -50 195 -148 286 -27 26 -49 55 -48 64 1 17 -34 32 -91
38 -50 5 -33 16 25 16 62 0 62 0 62 29 0 15 -3 49 -6 74 -6 45 -7 45 -53 54
-40 7 -50 14 -79 57 -27 41 -32 58 -30 95 3 39 8 49 37 68 19 13 48 23 65 23
31 0 33 3 123 193 50 106 104 223 119 260 l28 68 -28 22 c-26 21 -41 74 -27
95 11 14 62 32 92 32 37 0 54 20 90 106 25 58 27 70 15 83 -20 23 -48 82 -42
88 3 3 18 -4 34 -16 17 -12 37 -21 45 -21 27 0 120 241 100 261 -17 17 -114
-55 -215 -156 -50 -51 -92 -85 -100 -82 -17 7 183 204 235 232 20 11 37 22 37
25 0 4 -31 20 -70 37 -38 17 -70 36 -70 42 0 14 4 14 67 -3 28 -8 54 -12 57
-9 3 3 -6 25 -19 48 -37 62 -34 129 5 184 17 23 37 44 45 48 8 3 15 8 15 12 0
13 -151 115 -227 154 -80 41 -183 107 -168 107 5 0 38 -17 74 -39 36 -21 102
-54 146 -72 44 -18 91 -39 105 -46 13 -7 25 -11 27 -10 1 2 -9 39 -22 82 -13
44 -34 116 -45 160 -12 44 -24 86 -29 93 -6 10 -31 9 -127 -7 -65 -11 -151
-25 -190 -31 -64 -10 -71 -13 -67 -31 6 -20 72 -69 93 -69 5 0 10 -4 10 -10 0
-5 -26 2 -57 16 -94 42 -102 44 -166 44 -78 0 -281 -31 -286 -44 -2 -5 -14
-20 -27 -33 -19 -19 -34 -23 -83 -23 -56 0 -63 3 -101 38 -45 43 -51 76 -26
137 16 38 15 41 -14 23 -31 -19 -40 -1 -59 113 -14 89 -20 104 -36 107 -19 3
-142 -64 -174 -93 -19 -18 -11 -28 113 -161 60 -63 106 -117 103 -120 -2 -3
-21 3 -41 12 -20 10 -32 20 -27 24 6 3 -33 52 -86 108 -82 88 -100 103 -119
98 -14 -4 -24 -2 -24 4 0 6 5 8 10 5 6 -3 10 1 10 11 0 26 -63 105 -136 170
-90 79 -146 136 -139 142 9 9 120 -82 217 -178 l97 -96 43 27 c24 15 58 41 76
58 18 17 37 31 43 31 29 0 -10 80 -90 184 -66 87 -248 362 -256 387 -13 41 13
10 101 -123 49 -73 116 -169 149 -213 34 -44 77 -106 95 -137 19 -32 38 -58
43 -58 41 -1 -105 679 -176 819 -21 41 -27 46 -76 57 -42 9 -63 21 -92 52
l-38 39 -78 -18 c-43 -9 -104 -23 -136 -29 -55 -11 -58 -13 -53 -36 l7 -25
-28 20 c-26 18 -32 19 -98 7 -38 -7 -113 -21 -165 -30 -52 -9 -112 -22 -134
-27 -36 -10 -38 -12 -31 -42 3 -18 13 -70 21 -116 11 -70 21 -94 54 -142 71
-102 86 -167 55 -233 -9 -18 -51 -67 -93 -108 -142 -138 -157 -154 -224 -236
-38 -45 -68 -84 -68 -86 0 -11 69 -26 117 -26 30 0 63 -5 74 -10 27 -15 25
-41 -4 -39 -12 1 -34 1 -50 1 -27 -2 -27 -3 -13 -29 17 -34 139 -153 158 -154
7 -1 88 0 181 1 l167 2 30 30 c17 16 27 35 23 41 -4 7 0 8 11 4 10 -4 36 -2
58 3 34 10 44 8 81 -12 52 -29 67 -58 67 -129 0 -92 -51 -149 -133 -149 -54 0
-156 -54 -213 -111 l-47 -48 63 -108 c35 -59 72 -126 82 -148 84 -174 125
-250 134 -252 6 -2 27 17 46 41 19 25 38 43 42 39 13 -13 5 -41 -29 -93 -39
-60 -47 -106 -17 -97 9 2 25 8 35 12 13 5 16 3 11 -8 -3 -10 4 -22 20 -32 26
-17 229 -95 255 -98 8 -1 18 12 24 28 5 17 20 44 33 61 23 31 23 32 5 55 -10
13 -32 52 -50 87 -17 34 -37 62 -43 62 -7 0 -32 21 -55 46 -35 38 -43 53 -43
85 0 21 -4 39 -9 39 -5 0 -21 4 -36 10 l-26 10 21 40 c22 44 50 63 75 54 10
-4 21 -1 25 6 6 10 23 4 73 -29 95 -62 102 -72 102 -148 0 -61 -3 -67 -32 -92
l-32 -27 37 -81 c32 -71 41 -83 67 -89 84 -18 125 -66 125 -145 0 -17 4 -28 9
-25 5 3 39 -3 76 -15 37 -11 69 -18 72 -16 2 3 -3 118 -11 257 -9 139 -16 283
-16 321 l0 69 -56 25 -56 25 5 62 c2 35 7 72 11 83 6 16 -2 25 -39 48 -45 27
-75 72 -75 115 0 23 49 52 88 52 52 0 76 -29 82 -102 l5 -63 40 -6 c91 -14
124 -47 147 -147 8 -40 18 -57 34 -64 21 -10 114 -120 114 -135 0 -4 -18 12
-40 35 -23 23 -45 42 -51 42 -5 0 -28 12 -51 26 -35 23 -47 25 -77 18 l-36 -9
1 -231 c0 -127 4 -239 8 -249 4 -10 8 -57 10 -104 4 -104 20 -145 103 -256 33
-44 74 -107 92 -140 56 -103 64 -104 55 -6 -4 56 -3 82 3 78 6 -4 14 -46 18
-94 7 -89 22 -139 76 -250 31 -64 34 -93 11 -101 -7 -2 -20 16 -32 45 -11 26
-32 71 -45 98 -14 28 -32 69 -40 92 -7 23 -31 67 -52 99 -21 31 -53 79 -71
107 -18 28 -59 81 -91 117 -50 55 -69 69 -126 89 -38 13 -77 33 -88 44 -19 19
-21 19 -49 2 -23 -13 -41 -16 -80 -11 -46 6 -49 5 -44 -12 5 -14 1 -21 -15
-25 -23 -6 -23 -17 3 -272 10 -101 10 -100 9 -355 -1 -243 15 -503 34 -565 21
-70 20 -85 -8 -85 -17 0 -29 11 -44 38 -17 30 -23 69 -33 197 -6 88 -15 164
-20 169 -12 12 -135 -107 -151 -146 -17 -41 1 -53 86 -63 36 -3 65 -10 65 -13
0 -15 -82 -53 -126 -59 -41 -5 -48 -3 -71 21 -22 24 -27 26 -42 13 -9 -8 -23
-16 -32 -20 -22 -7 -159 9 -170 20 -23 23 32 86 60 69 14 -9 19 14 15 64 -18
234 -18 238 22 369 9 30 15 -2 29 -170 19 -224 23 -244 46 -265 18 -17 20 -16
44 6 14 13 25 27 25 32 0 12 156 164 175 172 30 11 36 58 31 224 -2 91 -8 168
-13 172 -4 4 -80 22 -167 39 -122 24 -161 29 -167 19 -10 -16 -63 7 -56 25 2
6 -4 22 -15 34 -21 22 -17 43 7 43 9 0 12 6 9 15 -4 9 0 15 10 15 9 0 16 -3
17 -7 5 -50 7 -52 61 -65 79 -18 111 -19 127 -4 14 12 24 11 74 -1 91 -23 88
-28 83 159 -5 186 -3 182 -94 193 -31 4 -65 14 -75 23 -16 14 -19 14 -27 2 -6
-8 -10 -21 -10 -27 0 -7 -3 -13 -7 -13 -5 0 -9 19 -10 42 -3 50 -19 76 -66
108 -20 14 -38 32 -40 42 -7 27 -55 34 -73 12 -34 -44 -46 -75 -33 -90 6 -8
16 -14 22 -14 5 0 27 -16 48 -35 22 -19 44 -35 50 -35 23 0 142 -99 161 -135
9 -16 4 -14 -23 8 -50 40 -106 76 -174 112 -33 17 -73 39 -90 49 l-30 18 -51
-51 c-53 -53 -91 -71 -60 -29 29 42 56 97 56 117 0 26 36 72 95 120 15 12 13
17 -27 58 -42 44 -42 45 -11 29 89 -45 85 -11 -21 189 -9 17 -16 35 -16 41 0
6 -17 30 -37 54 -21 24 -36 52 -35 62 2 10 -15 48 -37 83 -23 36 -41 68 -41
72 0 5 -7 16 -14 26 -13 17 -17 16 -63 -18 -68 -52 -113 -94 -113 -105 0 -6
-6 -10 -13 -10 -18 0 -157 -68 -179 -88 -10 -8 -18 -22 -18 -30 0 -12 10 -13
50 -8 48 6 55 4 222 -81 166 -85 217 -118 203 -131 -3 -4 -9 -2 -13 4 -4 6
-25 14 -47 18 -22 4 -49 13 -61 21 -18 11 -184 58 -256 72 -16 3 -36 -1 -50
-11 -27 -19 -38 -20 -38 -4 0 20 -32 48 -55 48 -12 0 -40 -9 -63 -20 -75 -36
-98 -36 -130 -2 -34 36 -57 109 -48 148 7 26 6 26 -29 20 -114 -22 -158 159
-53 215 10 5 40 12 68 15 49 5 50 5 67 -30 36 -77 53 -27 51 157 0 54 2 101 6
105 15 14 25 -26 31 -127 3 -58 9 -131 13 -161 l7 -55 40 -3 c54 -5 203 17
218 32 7 7 30 15 51 19 55 9 146 58 146 79 0 9 -11 30 -25 46 -14 17 -25 33
-25 38 0 13 -80 141 -98 156 -9 8 -27 15 -40 16 -29 1 -101 34 -102 46 0 5 7
14 16 21 15 10 12 16 -24 49 -73 68 -105 87 -132 81 -32 -8 -60 -33 -72 -65
-9 -23 -10 -24 -22 -7 -16 21 -30 22 -46 3 -6 -8 -34 -22 -61 -31 -34 -12 -54
-25 -61 -41 -12 -26 -37 -30 -71 -13 -47 25 -48 47 -2 98 35 39 44 64 25 76
-5 3 -10 21 -10 40 0 19 -4 37 -10 40 -5 3 -10 12 -10 19 0 7 -20 34 -45 58
-38 38 -45 52 -45 84 0 29 7 46 32 71 25 26 32 41 31 71 -1 97 -23 491 -29
521 -3 22 -20 49 -45 73 -38 37 -39 40 -39 107 0 39 -4 72 -8 75 -12 7 -4 273
10 318 9 32 8 41 -8 64 -48 68 -54 81 -54 126 0 36 5 52 22 68 12 11 27 20 34
20 19 0 22 142 6 220 -8 36 -17 88 -21 115 -7 54 -11 63 -52 115 -14 19 -32
54 -39 76 -12 39 -11 46 20 113 30 65 33 81 34 171 1 103 -10 138 -36 112 -20
-20 -28 -14 -28 26 0 20 -6 57 -14 82 -7 25 -13 91 -14 149 0 93 3 107 24 139
36 53 33 105 -10 153 -53 58 -60 140 -20 224 38 81 166 112 234 57 l22 -18
-43 -129 c-23 -72 -51 -139 -61 -151 -20 -22 -23 -75 -9 -137 10 -43 120 -192
133 -179 24 24 38 254 17 268 -8 5 -8 8 0 13 6 4 18 41 27 82 8 41 24 94 35
119 l20 45 -34 30 c-42 38 -51 60 -30 81 12 11 27 14 50 11 25 -4 47 1 81 19
40 22 55 25 100 20 50 -6 56 -4 96 29 36 29 51 35 91 35 40 0 53 5 86 35 24
21 50 35 67 36 15 0 65 8 111 18 67 15 87 24 105 46 18 22 33 29 73 32 31 3
53 1 57 -6 4 -6 17 -11 29 -11 12 0 40 -7 62 -15 22 -8 53 -14 68 -15 24 0 28
4 25 23 -2 15 -13 25 -35 32 -55 16 -42 36 20 30 74 -8 87 -14 87 -37 0 -12 7
-30 17 -40 14 -16 34 -18 174 -18 86 0 164 3 173 6 9 3 16 14 16 24 0 11 5 22
10 25 6 3 10 15 10 26 0 30 -112 27 -190 -6 -72 -30 -80 -31 -80 -5 0 23 53
60 86 60 12 0 38 14 59 30 21 17 43 30 50 30 7 0 42 13 78 29 46 21 69 38 79
58 14 29 37 34 84 18 15 -5 23 -1 32 19 9 20 20 26 69 31 32 4 87 13 123 20
42 9 108 12 181 10 l114 -5 18 40 c9 22 23 41 29 42 7 0 24 2 38 3 14 1 43 7
64 13 22 6 43 9 47 6 11 -7 0 -35 -24 -62 -24 -26 -18 -33 41 -52 37 -12 45
-11 58 1 8 9 16 29 17 45 2 27 -1 29 -35 32 -21 2 -38 6 -38 10 1 17 18 32 31
27 9 -3 25 5 38 19 22 23 22 26 7 48 -22 30 -20 60 5 92 25 32 55 33 87 4 19
-19 35 -23 85 -23 l62 0 20 40 c24 48 67 78 143 101 105 32 175 39 242 23z
m1920 -279 c-20 -13 -40 -13 -40 0 0 6 12 10 28 10 21 0 24 -2 12 -10z m1230
-110 c11 -11 20 -24 20 -30 0 -16 -39 -50 -58 -50 -20 0 -62 27 -62 40 0 5 4
20 10 34 12 33 60 36 90 6z m-5203 -286 c-3 -3 -12 -4 -19 -1 -8 3 -5 6 6 6
11 1 17 -2 13 -5z m6570 -646 c14 -15 18 -35 17 -87 0 -89 -17 -139 -64 -199
-44 -55 -47 -62 -26 -62 25 0 56 -50 56 -90 0 -58 -18 -141 -40 -183 -25 -47
-25 -74 0 -112 43 -65 15 -157 -58 -194 -43 -22 -52 -36 -52 -86 0 -38 10 -48
65 -65 53 -17 63 -26 71 -65 11 -59 -17 -98 -104 -145 -42 -22 -93 -49 -112
-60 -42 -24 -68 -25 -98 -4 -18 12 -22 25 -22 67 0 49 2 53 56 103 47 44 55
56 49 76 -11 34 -25 48 -50 48 -55 0 -57 69 -5 135 17 21 34 54 40 74 26 94
37 151 31 151 -9 0 -51 -56 -51 -68 0 -17 -39 -44 -55 -38 -9 3 -33 -6 -55
-20 -48 -32 -86 -29 -114 9 -18 24 -19 32 -9 70 10 37 8 51 -15 119 l-27 77
21 28 c23 31 43 38 80 29 34 -9 53 -44 58 -109 6 -70 14 -97 29 -97 14 0 67
54 67 68 0 5 7 15 15 22 8 7 24 33 35 58 12 26 28 55 38 65 16 18 17 18 28
-10 12 -28 12 -28 48 51 20 43 36 82 36 85 0 4 -20 22 -44 41 -25 18 -47 39
-50 47 -3 8 -11 11 -17 7 -9 -5 -10 7 -7 42 5 55 66 164 125 226 32 32 38 35
63 26 16 -5 36 -18 47 -30z m-887 -288 c0 -5 -5 -10 -11 -10 -5 0 -7 5 -4 10
3 6 8 10 11 10 2 0 4 -4 4 -10z m0 -56 c0 -8 -4 -12 -10 -9 -5 3 -10 10 -10
16 0 5 5 9 10 9 6 0 10 -7 10 -16z m799 -1042 c11 -38 -1 -68 -31 -75 -17 -5
-17 -8 7 -43 34 -50 30 -110 -9 -136 -40 -27 -96 37 -96 110 0 37 4 45 30 60
36 20 36 24 9 61 -26 35 -22 63 11 71 38 10 69 -9 79 -48z m-468 -276 c-22
-26 -97 -189 -131 -281 -18 -49 -36 -94 -40 -100 -4 -5 -26 -46 -49 -90 -41
-80 -52 -125 -28 -125 22 0 207 56 216 66 5 5 14 26 21 47 8 26 23 45 46 59
30 18 34 25 34 64 0 82 28 110 123 121 45 6 50 9 72 52 12 25 35 57 49 70 14
13 29 39 32 58 3 18 10 36 15 38 9 6 73 -60 102 -106 28 -43 24 -108 -11 -183
-39 -84 -64 -106 -119 -106 -35 0 -49 -6 -68 -26 -36 -39 -33 -62 11 -70 26
-5 41 -15 53 -35 11 -20 24 -29 42 -29 37 0 92 -54 84 -83 -7 -22 -49 -67 -64
-67 -14 0 -61 52 -61 67 0 15 -73 52 -103 53 -9 0 -30 -14 -45 -30 -15 -17
-45 -37 -67 -44 -33 -11 -45 -23 -66 -64 -15 -28 -49 -82 -76 -119 -57 -77
-163 -236 -184 -273 -9 -16 -14 -57 -14 -117 0 -87 -1 -93 -31 -129 -40 -50
-93 -78 -125 -65 -18 6 -29 23 -41 62 -44 146 -36 165 104 222 31 13 42 26 62
70 13 30 48 90 78 133 30 44 67 101 82 127 15 26 39 62 54 80 54 65 65 104 36
128 -13 11 -29 10 -98 -5 -44 -11 -100 -20 -123 -20 -40 -1 -43 -4 -83 -64
-28 -44 -51 -68 -75 -78 -50 -21 -69 -18 -103 17 l-31 32 -50 -37 c-28 -20
-55 -36 -60 -36 -6 0 -29 -20 -52 -45 -47 -50 -67 -59 -109 -50 -43 9 -60 49
-60 135 0 76 12 110 53 149 l26 23 47 -18 c39 -15 50 -25 66 -61 l19 -44 41
23 c53 30 63 49 38 80 -18 23 -18 28 -4 73 20 70 39 93 92 118 58 27 61 32 60
83 -1 57 10 84 33 84 40 0 33 -49 -17 -117 -15 -21 -15 -23 22 -38 21 -9 46
-23 55 -31 16 -15 20 -13 44 26 65 103 94 168 106 235 21 127 76 216 113 186
14 -12 46 -5 46 10 0 5 5 9 11 9 8 0 8 -4 0 -14z m-6000 -573 c13 -16 12 -17
-3 -4 -10 7 -18 15 -18 17 0 8 8 3 21 -13z m97 -120 c37 -52 25 -49 -18 5 -22
27 -40 53 -40 58 0 10 28 -21 58 -63z m6291 -60 c7 -16 16 -54 18 -85 5 -54 4
-58 -18 -67 -32 -12 -175 -106 -183 -120 -4 -6 -25 -20 -46 -31 -30 -15 -45
-17 -70 -10 -40 11 -48 2 -80 -80 -18 -45 -32 -63 -83 -102 -34 -25 -74 -52
-90 -59 -58 -26 -42 18 27 74 24 21 55 54 67 75 13 20 37 55 54 77 18 22 46
66 64 97 35 63 101 125 170 160 25 13 61 40 81 60 43 45 72 48 89 11z m-83
-282 c-3 -5 -15 -11 -26 -14 -17 -4 -19 -3 -9 9 12 15 44 20 35 5z m-836 -290
c-21 -85 -22 -108 -6 -139 22 -43 32 -46 65 -23 27 19 61 28 61 16 0 -3 -20
-33 -45 -67 -25 -34 -45 -68 -45 -75 0 -27 -50 -111 -80 -137 -81 -68 -128
-34 -164 118 -1 5 -16 -6 -34 -23 -37 -37 -38 -32 -13 64 18 67 20 70 50 73
19 2 35 10 38 20 7 21 65 145 129 277 l49 100 3 -79 c2 -44 -2 -100 -8 -125z
m297 -343 c14 -11 17 -76 5 -94 -10 -16 -48 -34 -71 -34 -25 0 -51 36 -51 73
0 41 43 81 78 72 15 -4 33 -11 39 -17z m-4420 -30 c-3 -8 -6 -5 -6 6 -1 11 2
17 5 13 3 -3 4 -12 1 -19z m-2234 -49 c-3 -10 -9 -19 -14 -19 -11 0 -12 44 -2
53 10 11 21 -13 16 -34z m6685 -206 c4 -28 -14 -63 -33 -63 -8 0 -19 9 -25 21
-9 16 -8 26 5 45 19 30 49 28 53 -3z m-5518 -127 c0 -9 8 -12 25 -8 25 4 35
-11 14 -23 -6 -4 -8 -12 -6 -19 3 -8 -8 -13 -34 -15 -29 -1 -41 3 -46 15 -4
10 -2 19 5 22 7 2 12 12 12 23 0 10 7 19 15 19 8 0 15 -6 15 -14z m816 -348
l29 -33 -32 29 c-31 28 -38 36 -30 36 2 0 16 -15 33 -32z m599 -8 c-3 -5 -15
-10 -25 -10 -10 0 -22 5 -25 10 -4 6 7 10 25 10 18 0 29 -4 25 -10z m-433
-152 c47 -47 49 -48 112 -48 86 0 114 -22 123 -97 7 -62 -1 -97 -27 -123 -49
-49 -172 0 -186 74 -8 46 -23 57 -86 65 -46 5 -53 9 -56 29 -4 29 22 60 60 70
42 11 37 25 -14 39 -23 7 -50 16 -58 20 -8 4 -35 12 -60 19 -43 11 -42 11 29
6 79 -6 80 -4 42 42 -25 30 67 -43 121 -96z m-2322 50 c1 -42 9 -165 30 -448
16 -205 52 -330 97 -330 8 0 31 13 51 28 20 16 53 40 73 55 35 25 37 29 41 96
2 47 9 76 21 89 9 10 17 31 17 46 0 15 5 37 11 48 9 17 17 19 52 14 53 -9 67
-21 67 -59 0 -20 10 -41 27 -59 29 -31 65 -35 138 -18 35 8 43 7 64 -14 27
-27 21 -46 -15 -46 -35 0 -90 -25 -102 -45 -10 -20 -7 -45 14 -91 13 -30 9
-74 -7 -74 -13 0 -39 43 -39 65 0 12 -6 29 -12 38 -12 15 -17 14 -60 -5 -27
-11 -48 -25 -48 -29 0 -5 -18 3 -41 18 -49 32 -67 25 -84 -33 -8 -30 -16 -40
-35 -42 -53 -8 -62 -27 -54 -127 l7 -92 -31 -34 c-26 -29 -37 -34 -74 -34 -64
0 -111 27 -133 74 -15 34 -16 52 -9 108 12 97 10 173 -9 293 -18 120 -40 464
-35 560 3 57 6 66 28 77 42 21 50 16 50 -29z m1994 22 c-6 -6 -21 -6 -39 -1
-30 9 -30 9 10 10 25 1 36 -2 29 -9z m86 -80 c0 -5 -9 -10 -19 -10 -11 0 -23
5 -26 10 -4 6 5 10 19 10 14 0 26 -4 26 -10z m5189 -144 c31 -33 37 -87 17
-141 -19 -49 -66 -95 -98 -95 -41 0 -58 28 -58 93 0 67 20 118 58 147 33 26
54 25 81 -4z m-7125 -42 c10 -26 7 -60 -9 -90 -13 -26 -15 -27 -15 -7 0 12 -4
25 -10 28 -13 8 -13 41 0 66 13 23 26 24 34 3z m6798 -111 c23 -20 23 -50 0
-85 -19 -29 -19 -39 3 -208 7 -51 5 -58 -20 -88 -15 -18 -48 -43 -73 -56 -46
-24 -108 -77 -263 -228 -59 -58 -97 -88 -112 -88 -13 0 -28 -5 -34 -11 -6 -6
-28 -9 -49 -7 -38 3 -39 4 -42 47 -4 50 6 64 84 121 55 41 65 61 83 157 11 60
50 123 77 123 14 0 34 -44 34 -74 0 -13 6 -28 13 -34 16 -14 120 -8 125 7 2 6
10 11 17 11 14 0 28 52 45 169 6 40 15 82 21 93 6 10 9 45 7 77 -3 64 10 91
45 91 11 0 29 -7 39 -17z m-4837 -123 c-10 -11 -20 -18 -23 -15 -7 6 18 35 31
35 5 0 2 -9 -8 -20z m-344 -139 c39 -70 69 -129 137 -270 26 -54 70 -104 132
-150 32 -24 32 -25 27 -90 l-6 -66 33 -21 c18 -12 50 -24 71 -28 29 -6 35 -10
24 -17 -8 -5 -28 -9 -45 -9 -19 0 -34 -6 -37 -15 -10 -24 22 -343 37 -379 7
-18 34 -61 60 -95 25 -35 46 -70 46 -77 0 -34 -73 -34 -121 0 -21 14 -24 13
-51 -9 -59 -50 -154 -18 -188 64 -9 23 -18 29 -38 28 -24 -2 -27 2 -27 28 0
23 7 33 30 44 37 17 41 24 49 72 7 44 -17 118 -71 216 -39 71 -56 87 -82 80
-16 -4 -18 0 -15 18 2 13 -4 33 -15 46 -19 24 -20 24 -51 6 -17 -11 -34 -16
-37 -13 -4 3 -2 6 3 6 13 0 54 38 54 49 0 4 -12 14 -27 21 -16 7 -23 15 -16
17 7 2 20 0 31 -6 14 -8 33 -4 77 14 l59 23 -3 60 c-2 56 -1 61 30 85 l32 25
-87 213 c-48 118 -90 221 -93 229 -5 11 0 9 15 -4 12 -10 41 -53 63 -95z
m-674 -287 c-9 -9 -28 6 -21 18 4 6 10 6 17 -1 6 -6 8 -13 4 -17z m-669 -276
c38 -35 54 -80 41 -117 -14 -39 -35 -51 -94 -51 -113 0 -141 123 -46 196 19
15 67 1 99 -28z m401 -137 c37 -35 60 -104 41 -126 -25 -30 -96 -10 -125 34
-17 27 -23 82 -12 111 10 25 13 27 39 18 15 -6 41 -22 57 -37z m2321 -296 c-7
-8 -22 -15 -34 -15 -20 1 -20 2 4 15 33 19 46 19 30 0z m951 -10 c16 -9 35
-13 41 -9 8 5 9 -6 5 -37 -4 -24 -10 -78 -13 -120 -8 -91 3 -119 46 -119 16 0
31 -3 33 -7 3 -5 -2 -44 -10 -88 -11 -61 -13 -135 -10 -307 5 -247 3 -257 -48
-244 -18 5 -25 13 -25 31 0 13 4 27 10 30 11 7 12 17 10 136 -1 82 14 328 25
394 5 31 5 31 -77 58 -46 15 -93 27 -105 27 -12 0 -25 5 -28 11 -5 7 -15 5
-31 -6 -35 -23 -29 -10 8 16 17 13 29 18 25 13 -4 -7 24 -17 71 -27 43 -10 80
-17 82 -17 3 0 1 47 -4 104 l-9 104 -41 22 -41 21 33 -4 c34 -4 39 2 20 21
-16 16 -3 15 33 -3z m1624 -15 c0 -7 -6 -15 -12 -17 -8 -3 -13 4 -13 17 0 13
5 20 13 18 6 -3 12 -11 12 -18z m-4020 -36 c0 -19 -3 -34 -7 -34 -11 0 -21 48
-14 66 10 25 21 7 21 -32z m1740 16 c-10 -11 -25 -20 -34 -19 -11 0 -9 3 5 9
12 5 25 13 29 19 3 6 9 11 12 11 3 0 -2 -9 -12 -20z m433 -39 c-96 -55 -187
-122 -242 -177 -29 -29 -36 -44 -36 -75 0 -36 2 -39 34 -45 27 -5 53 2 118 31
46 20 89 39 97 42 10 5 8 -2 -5 -20 -12 -16 -25 -24 -36 -21 -15 4 -80 -25
-102 -47 -6 -5 -19 -9 -29 -9 -17 0 -19 -5 -14 -43 9 -67 54 -198 81 -237 15
-23 46 -46 82 -64 33 -16 74 -40 93 -54 33 -25 35 -25 63 -9 39 23 84 21 115
-3 24 -18 24 -20 6 -20 -12 0 -37 -7 -58 -16 -21 -8 -43 -13 -50 -10 -7 2 -17
0 -22 -5 -10 -10 -38 2 -121 55 -22 14 -57 32 -78 41 -53 22 -78 47 -141 143
-76 115 -103 210 -65 231 13 7 18 27 22 82 l5 73 40 20 c23 12 57 34 78 49 40
32 226 137 242 137 5 0 -30 -22 -77 -49z m-955 -46 c-3 -9 -8 -14 -10 -11 -3
3 -2 9 2 15 9 16 15 13 8 -4z m487 -244 c-5 -11 -15 -23 -20 -26 -23 -14 2
-141 45 -227 25 -50 33 -98 16 -98 -23 0 -60 64 -75 129 -24 104 -21 189 6
218 26 28 43 30 28 4z m1400 -362 c0 -5 -4 -9 -10 -9 -5 0 -10 7 -10 16 0 8 5
12 10 9 6 -3 10 -10 10 -16z m-462 -215 c44 -29 16 -104 -39 -104 -40 0 -68
16 -79 45 -26 69 46 105 118 59z"/>
<path d="M4805 9100 c-8 -12 20 -24 35 -15 5 3 10 10 10 16 0 12 -37 12 -45
-1z"/>
<path d="M4952 9078 c3 -7 15 -15 27 -16 16 -3 22 1 19 10 -3 7 -15 15 -27 16
-16 3 -22 -1 -19 -10z"/>
<path d="M4254 9063 c-11 -37 -22 -49 -77 -86 -60 -39 -93 -79 -82 -97 8 -13
31 -13 95 1 43 9 50 14 49 32 -4 44 2 56 37 78 l37 22 18 -24 c12 -15 18 -37
17 -59 -3 -34 -2 -35 38 -38 76 -6 103 64 44 110 -17 13 -43 32 -58 44 -15 12
-46 24 -70 28 -35 5 -43 3 -48 -11z"/>
<path d="M3871 8994 c0 -11 3 -14 6 -6 3 7 2 16 -1 19 -3 4 -6 -2 -5 -13z"/>
<path d="M4744 8959 c-8 -14 14 -29 33 -22 18 7 17 20 -3 27 -21 8 -22 8 -30
-5z"/>
<path d="M4880 8950 c-12 -7 -12 -13 -4 -27 16 -25 40 -28 71 -7 25 16 26 17
8 30 -22 16 -54 18 -75 4z"/>
<path d="M6290 8923 c-25 -8 -65 -13 -90 -12 -25 0 -50 0 -55 0 -21 -2 -120
-84 -120 -99 0 -20 40 -42 78 -42 16 0 44 -12 63 -26 41 -32 57 -24 24 11 -21
22 -22 29 -12 45 7 11 12 27 12 35 0 36 58 -2 103 -68 15 -23 25 -27 65 -27
28 0 57 -7 71 -16 45 -32 211 12 211 56 0 16 -12 26 -47 41 -75 31 -97 45
-108 68 -7 15 -20 22 -45 23 -19 1 -45 2 -57 3 -11 0 -27 6 -35 11 -9 8 -26 7
-58 -3z"/>
<path d="M5558 8905 c-6 -13 -29 -36 -50 -50 -43 -29 -41 -43 11 -69 54 -27
87 -27 112 1 38 41 82 54 170 52 44 -1 82 0 84 3 3 3 -6 13 -21 23 -20 13 -52
18 -128 20 -89 2 -102 5 -114 24 -19 28 -50 27 -64 -4z"/>
<path d="M3727 8904 c-12 -12 4 -24 34 -24 34 0 39 15 7 24 -29 7 -33 7 -41 0z"/>
<path d="M7070 8866 c-22 -22 -40 -44 -40 -48 0 -12 82 -31 140 -32 55 -1 55
-1 58 31 4 39 -23 67 -79 81 -38 10 -41 9 -79 -32z"/>
<path d="M5415 8890 c-16 -7 -11 -9 22 -9 23 -1 45 4 48 9 8 12 -42 12 -70 0z"/>
<path d="M5020 8821 c0 -12 -62 -41 -89 -41 -22 0 -47 -17 -38 -26 4 -4 22 -2
41 4 18 7 65 16 105 21 77 10 91 15 75 31 -15 15 -94 24 -94 11z"/>
<path d="M4210 8795 c-10 -12 -7 -17 16 -26 45 -17 126 -30 146 -23 13 4 18
13 16 27 -2 17 -10 22 -35 22 -17 0 -35 3 -39 8 -13 13 -91 8 -104 -8z"/>
<path d="M4486 8792 c-7 -12 34 -72 50 -72 24 0 28 30 8 46 -33 25 -53 34 -58
26z"/>
<path d="M5220 8780 c-73 -15 -218 -95 -189 -104 56 -17 205 -40 259 -40 54
-1 211 23 270 41 24 7 -9 22 -121 54 -54 15 -112 35 -128 43 -32 17 -38 18
-91 6z"/>
<path d="M5799 8761 c-20 -16 -22 -23 -13 -38 15 -26 78 -66 82 -54 2 6 9 11
15 11 7 0 18 4 26 9 12 8 7 18 -26 50 -46 47 -52 48 -84 22z"/>
<path d="M6827 8726 c-16 -24 -69 -42 -150 -50 -21 -2 -46 -10 -54 -19 -14
-14 -13 -18 13 -42 16 -15 47 -36 68 -47 37 -19 74 -48 62 -48 -4 0 -14 4 -24
9 -16 9 -54 17 -188 43 -56 11 -66 10 -114 -11 -49 -21 -69 -23 -223 -23
l-169 -1 -29 -45 c-16 -25 -29 -52 -29 -59 0 -24 154 -8 170 17 6 9 61 15 192
21 100 4 254 13 340 20 136 11 189 11 395 -4 328 -23 701 -37 933 -34 163 2
199 5 220 19 14 9 43 19 65 23 78 12 135 27 135 35 0 20 -116 30 -400 35 -222
3 -245 5 -258 22 -8 11 -11 30 -7 51 6 31 5 32 -27 32 -100 1 -303 12 -373 20
-44 5 -150 16 -235 25 -85 9 -182 20 -215 25 -81 13 -81 13 -98 -14z"/>
<path d="M3297 8705 c-26 -15 -63 -19 -126 -12 -19 2 -26 -4 -33 -28 -13 -48
-4 -58 46 -53 52 6 83 -7 66 -27 -18 -22 17 -26 121 -15 52 5 171 16 266 25
l172 16 35 35 c40 40 44 50 19 58 -18 5 -225 7 -353 4 -36 0 -92 2 -125 6 -46
5 -67 3 -88 -9z"/>
<path d="M4190 8690 c0 -22 129 -70 186 -70 84 0 68 18 -55 61 -59 21 -131 25
-131 9z"/>
<path d="M6211 8678 c-15 -24 -2 -42 22 -32 20 7 23 40 4 47 -7 3 -19 -4 -26
-15z"/>
<path d="M3955 8683 c-20 -5 -45 -30 -45 -45 0 -4 37 -8 83 -8 122 0 144 25
45 49 -49 11 -51 12 -83 4z"/>
<path d="M5938 8661 c8 -4 13 -12 12 -17 -2 -12 66 -28 86 -20 15 6 15 8 -1
26 -13 15 -31 20 -64 20 -29 0 -41 -3 -33 -9z"/>
<path d="M4855 8621 c-8 -16 -31 -43 -51 -59 -57 -48 -41 -56 95 -48 124 7
212 24 219 44 2 7 -4 12 -13 12 -42 0 -158 34 -190 56 -20 13 -38 24 -40 24
-3 0 -11 -13 -20 -29z m135 -51 c8 -5 12 -12 9 -15 -10 -9 -89 6 -83 16 7 12
55 11 74 -1z"/>
<path d="M5653 8566 c10 -8 38 -20 63 -27 24 -7 44 -19 44 -26 0 -7 7 -13 14
-13 13 0 13 5 2 38 l-13 37 -64 3 c-57 2 -62 0 -46 -12z"/>
<path d="M3917 8535 c-119 -23 -201 -65 -239 -123 -39 -59 -12 -66 103 -26 73
25 75 26 144 10 74 -16 251 -30 349 -28 32 1 82 8 111 17 29 8 74 15 99 15 52
0 52 1 31 74 l-16 53 -132 6 c-331 17 -372 17 -450 2z m-124 -82 c-7 -2 -19
-2 -25 0 -7 3 -2 5 12 5 14 0 19 -2 13 -5z"/>
<path d="M2290 8500 c-19 -16 -41 -27 -48 -25 -7 3 -16 -3 -19 -12 -4 -11 5
-25 27 -43 30 -25 32 -28 15 -37 -27 -16 -12 -43 25 -43 26 0 34 -8 32 -31 -2
-14 129 -34 218 -33 76 0 105 5 145 22 64 30 85 49 85 82 0 14 7 35 15 46 22
29 18 34 -21 34 -51 0 -164 18 -282 46 -132 30 -149 30 -192 -6z m386 -93 c4
-4 -61 -7 -145 -7 -103 0 -150 3 -146 10 7 12 280 9 291 -3z"/>
<path d="M3525 8499 c-457 -43 -460 -44 -578 -120 l-57 -37 27 -10 c16 -6 40
-14 56 -18 15 -3 27 -10 27 -15 0 -25 97 18 188 83 51 36 110 52 130 36 10 -9
7 -18 -19 -44 -28 -29 -30 -34 -16 -40 20 -7 306 11 315 21 4 4 -2 13 -12 21
-19 13 -19 14 -2 14 10 0 36 16 57 35 22 19 45 35 53 35 14 0 28 34 18 44 -7
7 -72 5 -187 -5z"/>
<path d="M5216 8490 c-26 -11 -71 -24 -99 -28 -41 -6 -53 -12 -55 -27 -8 -39
-20 -44 -97 -38 l-73 6 -17 -34 c-10 -19 -31 -49 -46 -67 -16 -18 -29 -41 -29
-52 0 -20 -16 -29 -42 -22 -20 5 -22 19 -9 55 12 32 46 64 94 88 21 11 35 24
32 29 -4 6 -32 10 -64 10 -47 0 -62 -4 -77 -21 -35 -40 -96 -58 -245 -74 -79
-8 -145 -15 -146 -15 -1 0 0 -21 3 -47 5 -51 1 -60 -54 -134 -32 -42 -32 -43
-12 -51 36 -13 307 -33 450 -33 93 1 160 6 215 19 44 10 107 21 140 26 129 19
359 61 435 80 84 21 209 61 214 69 3 4 -17 26 -45 50 -40 34 -49 48 -49 74 0
46 34 96 70 104 17 3 30 9 30 14 0 18 -86 29 -275 34 -186 5 -203 4 -249 -15z
m204 -121 c34 -12 -79 -1 -116 11 -20 6 -10 7 31 3 33 -4 71 -10 85 -14z m150
-14 c8 0 15 -5 15 -10 0 -6 -4 -9 -10 -8 -5 1 -37 5 -70 9 -57 7 -58 8 -25 14
19 4 44 5 55 2 11 -3 27 -6 35 -7z m-604 -116 c43 -6 92 -17 109 -25 l30 -14
-45 5 c-80 10 -175 27 -190 36 -21 12 0 12 96 -2z"/>
<path d="M2030 8475 c0 -8 9 -15 20 -15 11 0 20 2 20 5 0 2 -9 9 -20 15 -16 9
-20 8 -20 -5z"/>
<path d="M5750 8474 c0 -8 5 -12 10 -9 6 3 10 10 10 16 0 5 -4 9 -10 9 -5 0
-10 -7 -10 -16z"/>
<path d="M5783 8475 c0 -8 7 -15 15 -15 12 0 12 3 2 15 -7 8 -13 15 -15 15 -1
0 -2 -7 -2 -15z"/>
<path d="M2827 8453 c-14 -13 -6 -33 13 -33 24 0 70 21 70 32 0 10 -74 11 -83
1z"/>
<path d="M8318 8443 c-19 -5 -25 -23 -9 -23 17 0 41 12 41 21 0 9 -4 10 -32 2z"/>
<path d="M8519 8402 c-24 -16 -60 -44 -79 -64 -29 -29 -45 -36 -93 -42 -56 -7
-57 -8 -56 -39 0 -18 4 -40 7 -50 7 -16 11 -15 44 10 60 47 202 169 217 187
23 28 7 27 -40 -2z"/>
<path d="M1910 8405 c-7 -8 -18 -15 -26 -15 -16 0 -38 -36 -41 -69 l-2 -24
136 6 c75 4 164 7 197 8 49 0 56 2 37 10 -13 5 -36 19 -53 30 -19 14 -50 23
-86 26 -31 2 -77 13 -101 24 -52 23 -46 22 -61 4z m167 -73 c-20 -19 -55 -8
-38 12 7 8 21 12 32 9 18 -5 19 -7 6 -21z"/>
<path d="M7000 8404 c-119 -13 -419 -34 -555 -40 -156 -6 -185 -12 -185 -40 0
-46 -148 -199 -218 -225 -14 -5 -22 -13 -18 -17 4 -4 249 -10 544 -14 684 -9
676 -9 749 3 36 6 68 7 77 2 36 -20 288 27 255 48 -8 4 -39 11 -69 15 -30 4
-98 20 -150 36 -67 21 -139 34 -245 44 -82 7 -172 18 -200 23 -27 6 -92 10
-142 10 -51 1 -93 5 -93 10 0 7 59 17 147 24 12 1 25 5 29 10 4 4 16 7 27 7
16 0 17 -2 7 -15 -12 -14 3 -16 131 -15 137 1 207 -6 292 -28 50 -13 47 -2 -8
27 -40 21 -101 73 -133 114 -10 13 -29 17 -81 17 -38 0 -81 2 -97 4 -16 2 -45
2 -64 0z m197 -90 c-3 -3 -12 -4 -19 -1 -8 3 -5 6 6 6 11 1 17 -2 13 -5z
m-103 -10 c27 -10 9 -20 -30 -16 -25 3 -32 7 -23 13 17 10 32 11 53 3z m-686
-114 c-15 -4 -51 -11 -80 -14 l-53 -6 40 14 c22 8 58 14 80 14 36 0 37 -1 13
-8z"/>
<path d="M7400 8391 c-62 -7 -73 -25 -28 -50 24 -14 32 -13 90 7 35 12 67 22
71 22 20 0 -9 -23 -64 -51 -33 -16 -57 -34 -54 -39 3 -5 21 -12 40 -16 19 -3
35 -12 35 -19 0 -17 91 -55 148 -62 26 -3 66 0 88 6 43 12 190 102 211 130 16
21 16 48 1 58 -7 4 -80 8 -163 9 -82 0 -188 3 -235 6 -47 3 -110 3 -140 -1z
m460 -65 c0 -11 -19 -15 -25 -6 -3 5 1 10 9 10 9 0 16 -2 16 -4z"/>
<path d="M1678 8323 c-2 -10 -20 -20 -48 -27 -39 -10 -45 -14 -42 -35 3 -29
60 -103 76 -98 14 5 50 142 42 162 -7 20 -24 19 -28 -2z"/>
<path d="M2808 8291 l-33 -29 25 -6 c14 -3 54 1 90 8 36 8 53 14 38 15 -16 0
-28 5 -28 9 0 8 -43 32 -55 32 -3 0 -19 -13 -37 -29z"/>
<path d="M6018 8313 c6 -2 18 -2 25 0 6 3 1 5 -13 5 -14 0 -19 -2 -12 -5z"/>
<path d="M3625 8299 c-32 -6 -276 -39 -294 -39 -3 0 0 -5 6 -11 13 -13 288 24
337 46 36 16 15 18 -49 4z"/>
<path d="M5938 8303 c7 -3 16 -2 19 1 4 3 -2 6 -13 5 -11 0 -14 -3 -6 -6z"/>
<path d="M6019 8295 c-3 -2 -32 -6 -64 -8 -80 -6 -84 -9 -125 -71 l-34 -54
-78 -7 c-43 -4 -78 -10 -78 -14 0 -3 24 -19 53 -36 46 -26 61 -29 128 -28 97
1 130 17 213 103 74 77 83 104 35 114 -38 7 -44 7 -50 1z"/>
<path d="M3946 8270 c-70 -5 -140 -11 -155 -15 -94 -23 -103 -26 -91 -39 26
-32 114 -60 191 -60 73 -1 75 -1 55 -18 -20 -17 -19 -17 34 -18 41 0 71 8 120
31 70 33 130 74 130 89 0 31 -102 41 -284 30z"/>
<path d="M3175 8256 c-22 -7 -56 -21 -75 -32 l-35 -19 40 -3 c22 -2 73 2 113
9 65 12 72 15 72 36 0 20 -5 23 -37 22 -21 0 -56 -6 -78 -13z"/>
<path d="M2075 8239 c-78 -16 -79 -21 -5 -80 l25 -20 -34 7 c-30 6 -33 4 -26
-12 9 -20 9 -29 25 -373 6 -123 15 -232 21 -242 5 -11 17 -19 27 -19 16 -1 16
-2 0 -14 -13 -9 -18 -28 -19 -67 0 -30 -4 -76 -8 -104 -6 -49 -7 -48 -19 50
-7 55 -19 106 -26 113 -11 12 -34 11 -141 -2 -71 -8 -133 -20 -138 -25 -15
-15 10 -296 31 -335 39 -75 79 -141 109 -182 18 -24 31 -44 28 -44 -3 0 -27
16 -55 36 -48 35 -61 33 -40 -6 5 -10 7 -25 4 -33 -5 -13 -10 -14 -39 -1 -18
7 -59 17 -89 20 l-56 7 0 -45 c0 -24 5 -49 11 -55 6 -6 8 -17 3 -24 -7 -12 -7
-190 1 -197 1 -1 49 13 106 33 57 20 118 37 134 38 28 2 30 5 32 42 4 70 13
101 36 122 19 19 29 20 81 13 33 -5 63 -7 67 -4 4 2 19 -12 33 -31 39 -51 77
-48 153 10 32 25 74 56 93 69 19 13 46 36 60 51 19 20 162 143 189 162 2 1
-11 18 -29 37 -47 49 -135 86 -231 96 -92 9 -107 16 -53 25 22 3 85 15 141 26
56 10 120 19 142 19 21 0 47 3 57 7 14 5 11 9 -17 19 -28 10 -30 13 -10 13 18
1 22 5 16 19 -5 9 -17 82 -28 162 -17 127 -18 156 -7 230 6 47 14 133 17 191
l6 107 -29 16 -29 15 28 1 c31 0 45 23 27 45 -10 13 -9 15 10 15 15 0 20 5 18
18 -5 28 -66 37 -150 23 -105 -18 -244 -50 -276 -63 -28 -11 -125 -28 -117
-20 2 2 -6 13 -18 23 l-22 18 35 1 c20 0 67 13 105 29 39 16 95 32 125 35 121
15 135 18 116 28 -24 14 -341 19 -401 7z m191 -165 c56 -16 88 -40 37 -28 -33
8 -112 42 -100 43 5 1 33 -6 63 -15z m179 -64 c8 -13 -15 -13 -35 0 -12 8 -11
10 7 10 12 0 25 -4 28 -10z m120 -39 c56 -21 65 -39 40 -78 -14 -22 -22 -24
-52 -20 -53 9 -83 33 -83 65 0 29 16 52 35 52 5 0 33 -9 60 -19z m-246 -93 c0
-47 -16 -135 -18 -102 0 11 -9 46 -20 77 -10 31 -16 59 -13 62 3 3 16 5 29 5
21 0 23 -4 22 -42z m-139 -398 c0 -5 -2 -10 -4 -10 -3 0 -8 5 -11 10 -3 6 -1
10 4 10 6 0 11 -4 11 -10z m327 -466 c-3 -3 -12 -4 -19 -1 -8 3 -5 6 6 6 11 1
17 -2 13 -5z m-642 -274 c3 -5 1 -10 -4 -10 -6 0 -11 5 -11 10 0 6 2 10 4 10
3 0 8 -4 11 -10z"/>
<path d="M2650 8240 c0 -5 14 -10 30 -10 17 0 30 5 30 10 0 6 -13 10 -30 10
-16 0 -30 -4 -30 -10z"/>
<path d="M4260 8241 c0 -29 -61 -99 -105 -120 -25 -11 -45 -23 -45 -26 0 -3
19 -5 43 -5 39 1 44 4 72 46 60 90 61 92 47 106 -9 9 -12 9 -12 -1z"/>
<path d="M8113 8221 c-36 -23 -47 -49 -38 -92 4 -17 4 -52 0 -77 l-8 -47 -13
35 c-7 19 -13 49 -13 67 -1 43 -10 63 -29 63 -16 0 -171 -89 -204 -118 -13
-11 -15 -19 -8 -33 6 -10 10 -46 11 -81 0 -35 4 -83 9 -108 10 -54 79 -323 85
-328 13 -13 154 335 162 401 4 36 10 47 22 45 35 -6 126 230 107 278 -8 20
-45 17 -83 -5z"/>
<path d="M1880 8205 c34 -20 100 -20 100 0 0 12 -13 15 -62 15 -60 -1 -62 -1
-38 -15z"/>
<path d="M3477 8209 c-135 -15 -149 -19 -144 -40 3 -10 1 -22 -4 -25 -22 -13
-4 -23 54 -28 34 -3 71 -7 82 -8 11 -1 47 1 80 5 65 8 64 4 -4 -13 -40 -10
-42 -12 -25 -25 29 -22 99 -18 202 12 91 27 94 28 59 35 -22 5 -53 2 -81 -6
-25 -8 -48 -11 -51 -6 -8 13 7 20 44 20 l36 0 -49 45 c-54 50 -60 51 -199 34z
m-64 -56 c-7 -2 -19 -2 -25 0 -7 3 -2 5 12 5 14 0 19 -2 13 -5z"/>
<path d="M2843 8203 c9 -2 23 -2 30 0 6 3 -1 5 -18 5 -16 0 -22 -2 -12 -5z"/>
<path d="M1767 8143 c-23 -51 -47 -156 -47 -205 0 -10 12 -24 28 -32 l27 -15
-29 -1 -28 0 7 -167 c4 -91 11 -178 14 -192 l7 -26 145 4 c79 1 145 4 146 5 7
6 -48 590 -57 605 -5 11 -24 23 -42 27 -18 3 -56 17 -85 30 -28 13 -54 24 -56
24 -2 0 -16 -26 -30 -57z"/>
<path d="M1522 8138 c-42 -93 -58 -188 -56 -343 2 -104 21 -198 48 -241 19
-28 46 -32 47 -6 0 11 4 8 10 -9 7 -20 19 -28 45 -32 64 -11 66 -7 58 107 -5
55 -8 192 -8 304 0 111 -2 202 -6 202 -4 0 -19 -9 -33 -20 -28 -22 -35 -18
-57 38 -18 47 -26 47 -48 0z"/>
<path d="M3210 8163 c-53 -8 -115 -25 -127 -34 -21 -18 -3 -39 34 -39 19 0 32
-4 29 -8 -3 -4 36 -6 85 -4 73 4 103 0 160 -18 38 -12 75 -19 82 -17 7 3 4 7
-8 12 -11 3 -28 11 -39 17 -10 5 -42 12 -71 15 -52 6 -53 6 -59 44 -7 41 -13
44 -86 32z"/>
<path d="M2714 8122 c-14 -68 -17 -63 39 -57 76 9 97 14 97 25 0 6 -9 10 -21
10 -12 0 -19 5 -17 13 3 7 28 14 59 17 81 8 44 20 -60 19 -90 0 -91 -1 -97
-27z m76 -32 c0 -5 -9 -10 -21 -10 -11 0 -17 5 -14 10 3 6 13 10 21 10 8 0 14
-4 14 -10z"/>
<path d="M2992 8097 c-23 -24 -29 -47 -12 -47 6 0 10 -4 10 -10 0 -5 -6 -10
-14 -10 -8 0 -22 -7 -31 -16 -22 -23 -14 -197 13 -275 32 -89 102 -221 142
-264 38 -40 116 -172 165 -277 14 -32 31 -58 36 -58 5 0 20 -25 34 -56 14 -31
45 -85 70 -119 25 -35 65 -103 89 -152 25 -48 52 -97 60 -108 14 -20 15 -19
48 12 32 31 44 71 25 84 -4 3 -2 13 6 21 8 8 17 23 20 34 4 17 11 -27 10 -64
-1 -7 17 3 38 23 22 19 41 35 44 35 3 0 -31 -45 -74 -100 l-80 -101 65 -107
c35 -59 98 -168 140 -242 104 -183 174 -290 190 -290 17 0 18 51 3 255 -14
197 -13 195 -47 195 -32 0 -74 20 -80 38 -2 7 7 12 25 12 15 0 36 7 46 14 18
14 16 24 -34 225 -49 195 -55 211 -78 220 -17 6 -20 10 -9 10 26 1 29 15 13
62 -23 71 -102 411 -135 584 -17 88 -35 170 -41 182 -9 16 -24 23 -60 28 -26
4 -55 12 -65 19 -27 20 -11 63 31 83 33 16 39 16 89 0 45 -15 66 -16 118 -7
82 13 209 13 228 -1 11 -8 5 -10 -25 -6 -22 2 -51 0 -65 -4 -16 -4 1 -7 51 -8
42 -1 117 -4 167 -7 89 -7 92 -6 92 15 0 12 -6 21 -14 21 -13 0 -13 4 0 28 7
15 14 32 14 37 0 12 -309 51 -333 42 -9 -3 -13 -13 -10 -25 5 -22 -3 -30 -50
-42 l-32 -9 29 25 c15 14 26 28 23 31 -3 3 -28 -3 -56 -12 -65 -21 -100 -16
-54 8 18 9 41 17 52 17 11 0 23 5 26 10 9 14 -17 12 -67 -4 -24 -8 -56 -17
-71 -20 -15 -4 -25 -11 -22 -16 4 -6 -12 -10 -37 -10 -30 0 -39 3 -28 10 22
14 3 25 -23 12 -12 -6 -39 -13 -60 -16 -49 -6 -82 -33 -125 -103 -20 -31 -44
-65 -54 -75 -32 -32 -38 -65 -37 -211 0 -79 4 -133 8 -122 7 17 9 16 12 -11 3
-16 0 -43 -7 -59 l-11 -28 -6 44 c-4 24 -7 109 -9 189 -2 134 0 148 21 190
l24 45 -23 -20 -23 -20 13 25 c27 52 83 116 116 133 19 9 34 21 34 26 0 10
-78 41 -103 41 -9 0 -17 5 -17 12 0 8 -28 9 -101 5 -56 -4 -104 -9 -107 -11
-2 -3 -5 -15 -6 -27 0 -12 -7 -24 -15 -27 -8 -3 -11 0 -7 6 11 18 -6 44 -38
58 l-31 13 28 1 c22 0 28 4 25 18 -5 26 -41 26 -66 -1z m318 -106 c0 -4 -11
-6 -25 -3 -14 2 -25 6 -25 8 0 2 11 4 25 4 14 0 25 -4 25 -9z m787 -57 c-3 -3
-12 -4 -19 -1 -8 3 -5 6 6 6 11 1 17 -2 13 -5z m-1060 -10 c-3 -3 -12 -4 -19
-1 -8 3 -5 6 6 6 11 1 17 -2 13 -5z m405 -280 c35 -12 47 -21 51 -40 8 -44
-10 -96 -44 -125 -33 -28 -76 -42 -84 -28 -3 4 5 9 17 11 32 5 32 22 0 34 -51
20 -87 146 -44 157 33 9 59 7 104 -9z m201 -544 c2 -69 1 -116 -4 -105 -4 11
-8 72 -8 135 1 146 6 132 12 -30z m4 -207 c-3 -10 -5 -2 -5 17 0 19 2 27 5 18
2 -10 2 -26 0 -35z"/>
<path d="M5580 8085 c55 -36 84 -43 95 -25 8 13 -91 60 -125 60 -20 0 -15 -6
30 -35z"/>
<path d="M5360 8081 c-14 -5 -40 -16 -58 -25 -33 -17 -33 -18 -16 -37 18 -20
15 -20 182 -3 72 7 55 24 -24 24 -69 0 -79 14 -19 26 19 3 35 10 35 15 0 11
-65 10 -100 0z"/>
<path d="M2835 8038 c-22 -5 -61 -8 -87 -6 l-47 3 -7 -65 c-7 -67 10 -294 26
-335 5 -13 19 -25 32 -28 20 -4 20 -4 -4 -6 -32 -1 -32 1 -17 -94 15 -99 21
-107 74 -107 42 0 44 1 48 33 l4 32 1 -34 c2 -32 4 -33 32 -27 17 3 55 17 84
32 l54 26 -28 57 c-77 152 -118 277 -127 384 -7 85 -16 96 -81 98 l-27 0 24
10 c14 5 37 7 53 4 21 -5 30 -2 34 10 9 22 5 23 -41 13z"/>
<path d="M6148 8023 c18 -2 45 -2 60 0 15 2 0 4 -33 4 -33 0 -45 -2 -27 -4z"/>
<path d="M4933 8013 c9 -2 25 -2 35 0 9 3 1 5 -18 5 -19 0 -27 -2 -17 -5z"/>
<path d="M6805 8011 c242 -19 370 -24 360 -13 -6 7 -95 13 -235 15 -148 4
-191 3 -125 -2z"/>
<path d="M4237 7987 c-20 -24 -21 -33 -6 -42 12 -8 49 22 49 40 0 23 -26 23
-43 2z"/>
<path d="M4305 8002 c-12 -12 -4 -51 17 -77 l21 -28 -22 13 c-13 6 -24 10 -25
8 -40 -61 -45 -78 -21 -78 27 0 16 -18 -15 -25 -64 -14 -18 -33 89 -37 40 -1
29 -3 -39 -7 -91 -6 -95 -7 -94 -28 0 -13 -4 -23 -9 -23 -5 0 -7 -11 -5 -25 3
-14 2 -25 -2 -25 -10 0 -37 -102 -49 -185 -17 -115 -22 -174 -26 -304 -3 -68
-7 -126 -10 -129 -13 -13 -4 -61 13 -65 15 -4 15 -5 1 -6 -20 -1 -33 -30 -16
-35 6 -2 65 -14 129 -25 64 -12 123 -24 131 -27 11 -4 23 24 52 113 20 65 44
138 53 162 11 31 13 46 5 48 -7 3 0 26 18 63 15 32 42 114 60 181 28 112 33
171 19 247 0 1 -24 -1 -54 -4 -35 -4 -56 -3 -60 5 -5 7 7 12 36 13 24 1 52 2
63 2 16 1 19 7 16 31 -1 17 -5 33 -8 38 -6 11 -71 9 -94 -3 -16 -9 -19 -7 -19
11 0 20 -3 21 -55 16 -56 -6 -75 2 -51 22 9 8 22 8 38 2 13 -5 35 -7 49 -4 14
2 81 10 149 16 l124 12 -55 58 c-54 58 -54 59 -129 67 -103 12 -218 18 -225
12z m95 -126 c0 -3 -4 -8 -10 -11 -5 -3 -10 -1 -10 4 0 6 5 11 10 11 6 0 10
-2 10 -4z m63 -13 c-7 -2 -21 -2 -30 0 -10 3 -4 5 12 5 17 0 24 -2 18 -5z"/>
<path d="M5100 7998 c-41 -5 -162 -12 -269 -16 l-194 -7 44 -48 44 -48 154 25
c138 23 185 33 314 67 21 6 37 16 37 24 0 17 -15 17 -130 3z"/>
<path d="M7180 7995 c0 -8 8 -15 18 -15 9 0 35 -7 57 -15 62 -22 87 -20 83 8
-3 21 -7 22 -65 19 -41 -3 -63 0 -63 7 0 6 -7 11 -15 11 -8 0 -15 -7 -15 -15z"/>
<path d="M7382 8003 c-6 -2 -10 -9 -6 -14 8 -14 40 -11 54 6 10 13 9 15 -11
14 -13 0 -30 -3 -37 -6z"/>
<path d="M5647 7959 c-10 -35 -9 -39 11 -40 14 0 13 -2 -4 -9 -12 -5 -24 -20
-28 -34 -11 -43 -87 -196 -98 -196 -5 0 -8 -5 -6 -11 2 -6 62 -30 133 -54 71
-23 122 -44 114 -47 -8 -3 14 -4 49 -2 58 3 141 30 185 60 22 14 12 19 -59 30
-41 6 -45 9 -24 14 34 9 -84 30 -168 30 -37 0 -62 4 -62 11 0 5 -5 7 -11 3 -8
-4 -7 -9 2 -15 8 -5 10 -9 4 -10 -5 0 -1 -4 10 -8 15 -6 9 -8 -23 -9 -23 0
-52 -4 -65 -7 -17 -5 -19 -4 -7 4 12 9 12 11 1 11 -19 0 22 30 89 64 39 20 48
22 30 8 -14 -12 -22 -23 -19 -26 11 -12 169 -15 162 -4 -3 7 -1 8 5 4 6 -4 24
1 38 11 l27 18 -17 -28 c-17 -25 -17 -27 -2 -27 10 0 14 5 11 10 -7 12 48 12
85 0 21 -7 18 -8 -20 -10 -40 -2 -37 -4 28 -12 95 -13 138 -4 175 35 19 20 28
25 24 13 -6 -16 -4 -17 20 -12 16 4 57 20 92 37 35 16 70 29 79 29 29 0 -1 16
-63 34 -33 10 -78 23 -100 31 -82 28 -285 85 -303 85 -10 0 -45 -16 -78 -35
l-59 -35 36 33 c19 19 44 39 55 45 33 18 8 25 -119 30 -124 5 -124 5 -130 -19z
m460 -115 c-3 -3 -12 -4 -19 -1 -8 3 -5 6 6 6 11 1 17 -2 13 -5z m-243 -179
c-4 -8 -1 -15 5 -15 6 0 11 -4 11 -9 0 -6 -12 -3 -27 5 -16 7 -37 14 -48 15
-16 1 7 9 57 18 4 0 5 -6 2 -14z"/>
<path d="M6045 7971 c-44 -3 -75 -9 -68 -14 6 -4 67 -20 135 -37 67 -16 142
-36 166 -44 24 -9 82 -25 129 -36 48 -11 138 -43 201 -71 87 -37 123 -48 144
-44 15 4 26 10 24 13 -2 4 6 7 17 7 12 1 33 5 46 9 16 6 21 5 17 -3 -10 -16
-3 -14 79 20 41 18 75 38 75 45 0 8 12 16 28 20 53 12 68 16 122 39 30 12 66
27 79 32 22 8 17 11 -45 26 -38 9 -118 21 -179 27 -129 12 -854 21 -970 11z
m1009 -65 c26 -8 64 -12 84 -10 31 4 34 3 19 -6 -25 -16 -103 -16 -122 0 -10
8 -29 10 -52 7 -20 -4 -42 -2 -47 3 -6 4 -27 10 -46 13 -19 2 -1 5 41 5 42 1
97 -4 123 -12z m-444 -19 c0 -2 -10 -12 -21 -23 -22 -19 -22 -19 -8 4 12 19
29 30 29 19z m-60 -47 c0 -5 -15 -9 -32 -9 l-33 1 30 8 c17 4 31 8 33 9 1 0 2
-3 2 -9z m115 -25 l60 -14 -65 6 c-71 6 -127 22 -80 22 14 0 52 -6 85 -14z
m108 -22 c-7 -2 -21 -2 -30 0 -10 3 -4 5 12 5 17 0 24 -2 18 -5z"/>
<path d="M5364 7959 c-34 -4 -86 -15 -115 -23 -29 -9 -64 -17 -78 -17 -25 -1
-25 -2 4 -9 29 -7 29 -8 4 -9 -15 0 -42 -7 -60 -15 -19 -7 -61 -16 -94 -19
-42 -4 -50 -3 -27 2 34 9 54 21 35 21 -6 0 -64 -14 -129 -31 -66 -17 -129 -33
-141 -36 -28 -7 -30 -33 -3 -40 16 -4 18 -8 9 -19 -8 -10 -9 -18 0 -27 6 -8 8
-17 4 -20 -3 -4 3 -7 13 -7 11 0 26 6 32 12 7 7 41 13 75 14 34 1 109 8 167
15 121 16 381 13 392 -4 7 -12 47 30 48 50 0 12 -116 11 -197 -2 -17 -3 -34
-1 -38 5 -3 5 -3 10 2 11 28 4 90 8 167 12 99 6 95 3 126 92 l19 55 -77 -1
c-42 -1 -105 -5 -138 -10z m176 -27 c-8 -3 -21 -9 -27 -15 -10 -7 -13 -4 -13
10 0 17 5 19 28 15 16 -3 21 -7 12 -10z m-177 1 c-7 -2 -19 -2 -25 0 -7 3 -2
5 12 5 14 0 19 -2 13 -5z m-446 -119 c-3 -3 -12 -4 -19 -1 -8 3 -5 6 6 6 11 1
17 -2 13 -5z m-52 -13 c-11 -4 -33 -11 -50 -14 l-30 -6 30 14 c17 8 39 14 50
14 l20 0 -20 -8z"/>
<path d="M7605 7940 c-20 -7 -22 -22 -33 -226 -15 -271 -17 -645 -3 -653 5 -4
6 -12 2 -19 -15 -24 18 -162 38 -162 16 0 40 95 46 174 2 39 7 181 10 316 3
134 8 246 10 249 3 2 5 -102 5 -232 0 -215 6 -268 24 -221 3 9 6 49 6 90 0 43
4 74 10 74 6 0 10 25 10 55 0 30 -4 55 -10 55 -14 0 -13 369 1 426 10 39 9 47
-6 64 -19 21 -72 26 -110 10z m112 -577 c-2 -16 -4 -5 -4 22 0 28 2 40 4 28 2
-13 2 -35 0 -50z"/>
<path d="M7483 7901 c-68 -33 -78 -50 -69 -114 4 -23 -2 -127 -13 -232 -11
-104 -22 -254 -26 -333 -8 -196 -18 -275 -45 -363 -22 -69 -29 -80 -107 -155
-46 -44 -83 -85 -83 -90 1 -5 23 -19 50 -32 27 -13 59 -36 70 -52 l21 -29 43
30 c24 16 50 29 58 29 16 0 88 46 106 68 6 9 12 26 12 38 0 12 9 33 21 48 36
45 41 87 25 178 -19 104 -22 193 -13 383 5 83 10 202 11 265 2 63 7 177 11
253 5 80 4 137 -1 137 -5 0 -37 -13 -71 -29z"/>
<path d="M3800 7890 c-19 -10 -48 -31 -63 -47 l-28 -30 26 -147 c14 -81 34
-189 46 -239 46 -210 74 -322 80 -325 3 -1 4 -15 2 -30 -4 -22 -2 -24 7 -12 8
12 9 9 4 -11 -3 -15 -1 -29 4 -33 5 -3 7 -17 4 -31 -4 -23 -2 -25 39 -27 l44
-1 -38 -4 c-26 -3 -37 -9 -34 -17 3 -6 13 -41 22 -77 10 -35 24 -69 31 -75 8
-6 11 -13 8 -16 -9 -9 57 -199 76 -218 22 -22 70 -16 70 9 0 9 -5 45 -10 81
-5 36 -10 114 -11 175 0 72 -5 112 -12 117 -9 6 -9 8 1 8 21 0 13 40 -10 50
l-23 9 23 0 c21 1 22 6 24 74 1 39 3 86 4 102 1 17 5 82 8 145 8 140 23 277
37 338 16 71 10 75 -72 46 -39 -14 -76 -23 -83 -21 -6 2 28 16 77 31 93 29 87
23 135 129 2 4 -21 7 -52 7 -30 0 -81 7 -113 15 -32 9 -80 18 -108 20 -28 2
-49 9 -47 15 3 15 -28 10 -68 -10z m215 -72 c7 -7 2 -9 -15 -4 -14 3 -58 6
-97 6 -46 0 -73 4 -73 11 0 14 170 1 185 -13z m13 -875 c-10 -2 -26 -2 -35 0
-10 3 -2 5 17 5 19 0 27 -2 18 -5z"/>
<path d="M5108 7903 c6 -2 18 -2 25 0 6 3 1 5 -13 5 -14 0 -19 -2 -12 -5z"/>
<path d="M5058 7893 c6 -2 18 -2 25 0 6 3 1 5 -13 5 -14 0 -19 -2 -12 -5z"/>
<path d="M7280 7790 l-64 -37 -17 -84 c-9 -46 -31 -122 -48 -169 -34 -94 -64
-210 -81 -313 -7 -37 -16 -70 -21 -73 -5 -3 -9 -41 -9 -86 0 -70 6 -98 46
-214 50 -145 51 -146 102 -91 33 35 51 170 48 359 -2 81 1 153 6 160 10 14 3
-359 -8 -451 -7 -52 -6 -53 15 -42 28 15 57 75 78 158 14 56 16 114 15 323 -1
140 -4 287 -7 325 -3 44 -2 62 4 50 5 -13 10 18 13 95 3 63 2 118 -1 121 -3 3
-35 -11 -71 -31z"/>
<path d="M4643 7803 c-7 -2 -13 -11 -13 -19 0 -10 14 -14 50 -14 43 0 50 3 50
20 0 17 -6 20 -37 19 -21 0 -44 -3 -50 -6z"/>
<path d="M6440 7782 c0 -11 -47 -33 -215 -102 -148 -61 -185 -80 -153 -80 8 0
21 -6 27 -14 10 -12 5 -12 -33 -4 -36 7 -51 6 -78 -8 l-33 -17 26 -7 c14 -4
56 -10 95 -14 38 -3 107 -14 154 -23 l85 -16 60 34 c59 34 193 93 290 129 56
21 67 35 33 45 -13 4 -36 13 -53 21 -109 48 -205 75 -205 56z m190 -71 c0 -12
-74 -41 -103 -41 -17 1 -12 6 23 25 46 25 80 32 80 16z m-375 -95 c28 -8 43
-15 35 -15 -8 0 -37 6 -65 13 -27 8 -43 15 -35 15 8 0 38 -6 65 -13z m72 -82
c-3 -3 -12 -4 -19 -1 -8 3 -5 6 6 6 11 1 17 -2 13 -5z"/>
<path d="M7787 7783 c-10 -17 -19 -346 -12 -454 6 -97 9 -110 21 -95 7 10 23
59 35 110 25 105 22 213 -10 354 -20 85 -25 100 -34 85z"/>
<path d="M4631 7673 c0 -43 -5 -100 -10 -128 -15 -81 -78 -307 -99 -356 -10
-24 -38 -104 -61 -177 -42 -128 -43 -134 -25 -147 18 -14 18 -14 -7 -15 -20 0
-28 -6 -33 -23 -9 -38 -36 -225 -36 -253 0 -26 48 -84 69 -84 13 0 187 179
212 217 9 13 19 24 23 24 9 -1 46 37 46 48 0 5 -12 11 -27 14 -16 3 -59 12
-98 20 -72 15 -131 35 -105 36 8 1 48 -6 89 -14 69 -15 113 -19 168 -16 28 1
63 49 44 60 -7 5 -13 53 -16 142 -3 74 -3 128 1 122 3 -7 14 -13 25 -13 10 0
19 -4 19 -10 0 -5 -7 -10 -15 -10 -23 0 -20 -76 3 -90 12 -8 13 -13 5 -16 -15
-7 -18 -114 -3 -114 12 0 86 93 110 139 10 20 32 51 49 69 17 18 31 37 31 42
0 5 14 24 30 42 17 18 33 42 37 53 3 11 17 37 30 59 20 31 22 40 11 47 -10 7
-9 9 4 9 31 0 173 188 155 206 -2 3 -26 8 -53 13 -27 4 -58 13 -69 20 -17 10
-11 11 39 8 64 -4 136 9 136 25 0 6 -42 8 -105 6 -76 -2 -105 0 -105 9 0 19
29 23 145 21 117 -2 163 11 185 52 9 17 6 20 -25 26 -19 3 -50 4 -67 2 -18 -3
-47 -1 -65 4 -19 5 -57 5 -95 -1 -45 -8 -376 -41 -401 -41 -1 0 -1 -114 1
-252 2 -210 5 -255 18 -264 12 -10 10 -12 -11 -16 -25 -5 -25 -5 -25 71 0 105
-9 313 -15 386 -7 65 -12 79 -35 88 -12 4 -11 6 3 6 9 1 17 8 17 16 0 11 -12
15 -49 15 l-50 0 0 -77z m259 17 c0 -5 -8 -10 -17 -10 -15 0 -16 2 -3 10 19
12 20 12 20 0z m77 -6 c-3 -3 -12 -4 -19 -1 -8 3 -5 6 6 6 11 1 17 -2 13 -5z
m176 -131 c-7 -2 -19 -2 -25 0 -7 3 -2 5 12 5 14 0 19 -2 13 -5z"/>
<path d="M1266 7731 c-6 -9 7 -92 19 -124 6 -13 17 -16 51 -14 24 1 44 6 45
10 0 9 -99 137 -106 137 -2 0 -6 -4 -9 -9z"/>
<path d="M7142 7723 c-7 -3 -30 -42 -51 -87 -21 -44 -56 -111 -79 -148 -69
-113 -87 -211 -62 -346 13 -72 44 -152 60 -152 5 0 10 25 11 58 0 31 3 69 5
83 6 36 98 389 123 474 21 71 27 126 14 124 -5 0 -14 -3 -21 -6z"/>
<path d="M6915 7710 c-3 -6 1 -7 9 -4 18 7 21 14 7 14 -6 0 -13 -4 -16 -10z"/>
<path d="M5625 7690 c-3 -5 -2 -10 4 -10 5 0 13 5 16 10 3 6 2 10 -4 10 -5 0
-13 -4 -16 -10z"/>
<path d="M6845 7681 c-22 -11 -35 -19 -30 -19 14 -1 93 36 80 37 -5 0 -28 -8
-50 -18z"/>
<path d="M6993 7656 c-44 -22 -74 -42 -78 -55 -7 -23 -8 -86 -1 -116 2 -11 5
-31 5 -45 l1 -25 20 25 c11 14 20 31 20 37 0 7 23 45 50 84 42 58 74 129 58
129 -2 0 -36 -15 -75 -34z"/>
<path d="M2667 7633 c-20 -19 8 -200 33 -213 16 -8 16 -2 0 100 -16 109 -21
126 -33 113z"/>
<path d="M5481 7616 c-12 -14 -7 -16 47 -16 33 0 75 -2 93 -5 l34 -5 -35 16
c-52 25 -123 30 -139 10z"/>
<path d="M6590 7575 c-113 -51 -176 -84 -163 -84 6 -1 67 26 135 58 132 64
152 82 28 26z"/>
<path d="M6827 7578 c-45 -31 -47 -35 -42 -67 10 -52 41 -129 77 -191 l33 -55
3 40 c5 57 -9 305 -17 305 -4 0 -28 -15 -54 -32z"/>
<path d="M5428 7553 c-54 -59 -50 -202 10 -349 30 -74 32 -76 117 -100 33 -9
74 -22 90 -30 28 -12 28 -14 6 -14 -21 0 -23 -3 -18 -32 8 -43 18 -196 13
-183 -3 6 -10 49 -16 97 -11 77 -14 86 -31 83 -12 -2 -17 0 -13 7 9 15 -15 28
-53 28 -38 0 -38 -1 -18 -39 8 -16 16 -39 19 -53 2 -14 11 -45 19 -70 9 -24
19 -72 23 -105 l6 -61 91 -9 c51 -4 92 -13 94 -19 3 -8 -9 -9 -39 -4 -24 4
-64 10 -90 13 l-48 6 0 -38 c0 -21 3 -52 6 -69 5 -27 10 -31 33 -28 46 6 81
25 91 48 7 20 9 20 9 4 1 -18 2 -18 19 -3 10 10 23 17 28 17 5 0 20 10 34 21
14 11 19 18 13 14 -7 -3 -13 -2 -13 4 0 6 10 16 22 22 13 7 28 17 34 23 7 6
38 31 69 56 31 25 89 77 129 115 62 60 75 79 90 130 28 93 31 115 13 115 -38
0 -57 34 -72 125 -30 177 -35 193 -56 198 -25 7 -122 -16 -166 -39 -40 -21
-53 -56 -54 -153 0 -92 -15 -69 -25 40 -4 37 -11 66 -15 63 -5 -3 -9 3 -10 13
0 15 -2 15 -7 3 -11 -25 -36 -17 -51 16 -24 55 -71 68 -71 20 0 -15 -7 -26
-20 -29 -16 -4 -20 0 -20 22 0 25 22 66 44 84 6 5 0 6 -14 3 -14 -4 -59 -9
-100 -11 -70 -4 -72 -4 -25 5 197 38 201 43 40 55 -90 6 -102 5 -117 -12z
m577 -253 c-3 -5 -10 -10 -16 -10 -5 0 -9 5 -9 10 0 6 7 10 16 10 8 0 12 -4 9
-10z m-298 -246 c-3 -3 -12 -4 -19 -1 -8 3 -5 6 6 6 11 1 17 -2 13 -5z m-111
-92 c-10 -2 -22 0 -28 6 -6 6 0 7 19 4 21 -5 23 -7 9 -10z m7 -59 c-7 -2 -19
-2 -25 0 -7 3 -2 5 12 5 14 0 19 -2 13 -5z m182 -233 c-3 -5 -12 -10 -18 -10
-7 0 -6 4 3 10 19 12 23 12 15 0z"/>
<path d="M1287 7548 c-8 -22 17 -352 28 -368 6 -8 15 -28 20 -45 11 -31 29
-43 110 -68 34 -11 51 -13 56 -5 12 18 49 -1 49 -27 0 -26 -23 -39 -48 -26
-35 18 -141 43 -157 37 -30 -11 2 -135 49 -186 13 -14 33 -43 46 -65 30 -51
73 -105 83 -105 4 0 7 7 7 15 0 29 15 15 37 -35 12 -28 27 -50 32 -50 24 0 24
54 6 358 -6 93 10 116 50 72 14 -16 16 -23 7 -32 -13 -13 -16 -64 -4 -71 4 -3
33 -8 65 -12 50 -6 57 -5 57 10 0 9 -14 30 -31 47 -22 22 -27 33 -18 39 15 9
1 45 -42 114 -32 50 -49 57 -49 21 0 -14 -4 -27 -9 -30 -11 -7 -21 18 -21 54
0 44 -137 294 -180 327 -8 6 -35 17 -60 23 -25 7 -52 14 -61 16 -9 3 -19 -1
-22 -8z"/>
<path d="M6630 7516 c-59 -21 -185 -87 -234 -122 l-46 -34 0 -100 c0 -80 -3
-102 -15 -106 -8 -4 -15 -12 -15 -20 0 -7 -6 -11 -13 -8 -17 6 -72 -54 -86
-95 -6 -19 -11 -79 -11 -134 l0 -99 48 7 c26 4 51 8 55 8 10 2 9 -561 -1 -579
-4 -7 -6 117 -4 275 l3 289 -47 -9 c-26 -5 -49 -10 -50 -12 -2 -2 -6 -291 -9
-642 -4 -352 -7 -677 -8 -722 -1 -82 0 -83 33 -113 40 -36 48 -37 60 -7 l9 22
0 -24 c1 -13 12 -34 27 -47 26 -25 40 -31 29 -14 -3 6 6 15 20 20 39 15 41 13
15 -15 l-23 -25 23 -25 c45 -48 71 -42 208 55 79 55 208 180 217 210 4 12 12
17 21 13 19 -7 95 65 162 152 26 33 52 66 59 73 16 16 16 27 3 52 -7 14 -21
18 -55 18 -25 -1 -48 2 -52 6 -13 13 21 27 55 22 l32 -5 0 73 c0 65 3 77 28
109 25 32 30 47 35 125 3 49 13 107 22 128 9 21 12 40 8 42 -31 10 -33 22 -36
188 -3 155 -6 175 -32 249 -15 44 -31 85 -35 90 -4 6 -10 23 -14 39 -4 15 -14
35 -22 43 -8 8 -12 18 -9 23 3 5 1 10 -3 12 -10 4 -65 160 -87 248 -9 36 -22
70 -29 75 -7 6 -17 21 -21 35 -4 14 -20 51 -36 83 -15 32 -37 87 -49 123 -14
41 -25 62 -30 54 -5 -9 -9 -9 -14 -1 -9 14 -42 13 -86 -3z m125 -91 c8 -31 9
-56 4 -56 -13 -2 -29 -6 -31 -8 -2 -2 -16 -4 -33 -6 -16 -2 -41 -7 -53 -10
-30 -8 -57 12 -41 31 6 7 16 11 23 8 7 -3 33 5 57 18 37 19 45 29 47 57 4 43
12 34 27 -34z m-32 -250 c-3 -9 -8 -14 -10 -11 -3 3 -2 9 2 15 9 16 15 13 8
-4z m132 -815 c55 -23 130 -52 168 -63 49 -15 67 -26 67 -38 0 -10 -3 -20 -7
-22 -5 -3 -57 20 -118 49 -60 30 -143 68 -182 85 -74 31 -107 55 -56 39 16 -4
73 -27 128 -50z m145 -355 c0 -3 -6 -5 -14 -5 -15 0 -40 -74 -56 -170 -13 -75
-39 -171 -50 -183 -4 -5 -2 18 5 50 7 32 17 92 24 133 6 41 21 107 33 147 22
70 23 72 40 53 10 -11 18 -22 18 -25z m-678 -396 c5 -4 3 -9 -6 -12 -14 -5
-16 2 -14 51 1 53 2 54 5 12 3 -24 9 -47 15 -51z m-15 -96 c-2 -16 -4 -5 -4
22 0 28 2 40 4 28 2 -13 2 -35 0 -50z m534 16 c-5 -13 -10 -19 -10 -12 -1 15
10 45 15 40 3 -2 0 -15 -5 -28z"/>
<path d="M1580 7437 c0 -7 16 -32 35 -54 19 -23 35 -51 35 -62 0 -29 54 -110
58 -88 4 21 -15 194 -23 207 -10 16 -105 13 -105 -3z"/>
<path d="M2965 7383 c-56 -25 -100 -38 -149 -42 -77 -7 -97 -25 -47 -42 36
-13 44 -34 36 -93 -9 -60 -38 -103 -81 -121 -34 -14 -77 -48 -280 -220 -137
-115 -152 -125 -196 -131 l-43 -6 -3 -56 c-4 -70 -13 -87 -62 -112 -65 -33
-106 -25 -166 32 l-31 29 -132 -34 c-73 -19 -137 -39 -143 -45 -7 -7 -1 -42
17 -108 28 -102 56 -144 95 -144 11 0 37 -7 57 -15 21 -8 70 -22 108 -31 39
-8 96 -21 128 -29 66 -14 89 -29 59 -37 -10 -3 -78 14 -151 38 -143 47 -224
63 -235 46 -3 -6 -1 -23 5 -38 5 -16 17 -60 25 -99 21 -104 52 -175 81 -186
13 -5 49 -9 79 -9 52 0 55 1 71 35 18 38 33 37 33 -1 0 -21 4 -24 38 -24 39 1
230 36 495 91 l157 33 0 42 c0 60 35 99 107 120 l55 16 -6 97 c-26 390 -33
701 -16 701 17 0 18 -11 29 -280 12 -271 26 -473 36 -513 4 -13 26 -39 50 -57
48 -36 60 -57 70 -123 7 -45 1 -66 -36 -125 -15 -25 -18 -21 59 -83 21 -16 16
-15 -20 6 -27 14 -48 22 -48 18 0 -4 14 -50 30 -102 17 -52 39 -133 51 -180
11 -47 26 -113 34 -146 8 -33 26 -125 40 -205 25 -140 42 -210 51 -210 8 0 87
51 138 89 45 33 107 110 243 304 26 37 65 89 86 115 42 53 44 59 20 65 -10 3
0 5 22 6 98 3 80 35 -64 113 -53 28 -110 59 -127 69 -56 31 -225 90 -341 119
-63 15 -117 30 -120 34 -13 13 8 36 29 32 13 -3 120 -23 238 -45 118 -22 258
-52 310 -67 52 -14 112 -31 132 -36 31 -9 46 -6 93 13 51 21 56 26 51 49 -3
14 -8 39 -12 56 -6 33 -4 32 -143 59 -33 7 -33 7 -10 19 19 9 25 22 30 61 l6
50 1 -52 2 -53 40 0 c22 0 40 3 40 8 0 4 -15 32 -34 63 -18 31 -57 101 -85
156 l-52 101 -52 -19 c-29 -10 -81 -25 -117 -34 -57 -15 -173 -59 -265 -100
-49 -23 -135 -53 -135 -49 0 3 28 18 63 33 35 16 76 40 91 54 15 15 64 37 109
52 230 73 277 89 277 95 0 16 -61 118 -82 136 -40 36 -55 36 -67 2 -6 -17 -14
-29 -17 -25 -3 3 -29 -10 -56 -29 -65 -46 -72 -39 -9 10 27 20 61 52 76 72
l26 34 -19 28 c-10 15 -47 79 -82 142 -34 63 -77 135 -94 160 -18 25 -55 89
-84 143 -28 53 -79 139 -113 190 -34 50 -71 107 -83 124 -12 18 -23 33 -26 33
-3 0 -41 -17 -85 -37z m153 -985 c-20 -31 -28 -67 -17 -74 21 -13 7 -23 -17
-12 -15 7 -21 14 -15 16 6 2 11 10 11 18 0 8 10 28 22 44 26 35 37 40 16 8z
m137 -128 c8 -13 -15 -13 -35 0 -12 8 -11 10 7 10 12 0 25 -4 28 -10z m-1038
-105 c-48 -42 -166 -107 -210 -116 -23 -4 -51 -11 -62 -15 -19 -6 -19 -6 -4
11 26 27 251 144 279 144 l25 0 -28 -24z m121 -97 c32 -32 -17 -84 -66 -71
-30 8 -27 27 9 57 35 29 40 31 57 14z m932 -320 c0 -8 -140 68 -155 84 -5 6
27 -9 72 -33 46 -24 83 -47 83 -51z"/>
<path d="M5203 7363 c-66 -71 -175 -232 -225 -333 -7 -14 -15 -27 -19 -30 -15
-11 -69 -132 -64 -140 4 -6 -8 -10 -25 -10 -29 0 -32 -2 -26 -25 4 -17 2 -25
-7 -25 -15 0 -177 -155 -177 -170 0 -5 -6 -10 -12 -11 -12 0 -122 -121 -140
-153 -6 -11 4 -22 39 -43 27 -15 76 -47 111 -70 35 -24 71 -43 81 -43 10 0 40
-12 67 -26 27 -14 141 -73 254 -131 113 -58 228 -118 255 -134 53 -29 105 -44
105 -29 0 12 66 46 106 54 21 5 34 15 38 29 8 29 7 402 0 450 -6 32 -10 37
-33 37 -15 0 -31 8 -39 20 -8 13 -23 20 -41 20 -24 0 -31 -5 -36 -29 -3 -16
-3 -40 1 -55 5 -21 3 -26 -12 -26 -33 0 -46 16 -48 59 -2 31 1 40 11 37 8 -3
13 2 13 12 0 17 35 24 128 26 26 1 32 5 32 24 0 12 -7 25 -15 28 -8 4 -15 10
-15 16 0 5 4 7 9 4 5 -3 12 1 15 9 7 19 -38 39 -70 31 -13 -4 -25 -2 -29 4 -3
5 -12 7 -20 3 -8 -3 -15 0 -15 7 0 10 15 11 60 7 69 -8 69 -7 46 88 -10 44
-15 51 -41 56 l-30 7 33 1 c36 1 44 23 15 40 -10 6 -13 11 -8 11 27 1 -25 20
-60 22 -32 1 -29 2 19 7 l59 6 -27 32 c-22 26 -38 33 -96 44 -38 7 -67 16 -63
22 5 9 41 5 76 -8 10 -4 17 -3 17 4 0 15 -54 41 -87 42 -15 0 -22 3 -15 6 8 3
41 0 74 -7 59 -11 87 -7 57 10 -8 5 -35 55 -58 112 -24 57 -49 118 -57 136
-21 48 -47 42 -111 -25z m-22 -196 c-10 -9 -11 -8 -5 6 3 10 9 15 12 12 3 -3
0 -11 -7 -18z m174 -223 c44 -19 68 -33 54 -30 -32 7 -158 64 -144 65 6 1 46
-15 90 -35z m-327 -106 c14 -3 14 -5 -3 -9 -11 -3 -36 -1 -55 5 l-35 10 33 4
c29 3 32 6 34 40 l1 37 4 -42 c3 -29 9 -43 21 -45z m69 -14 c-3 -3 -12 -4 -19
-1 -8 3 -5 6 6 6 11 1 17 -2 13 -5z m166 -31 c108 -25 84 -30 -38 -8 -51 10
-115 27 -115 32 0 6 69 -4 153 -24z m114 -29 c-3 -3 -12 -4 -19 -1 -8 3 -5 6
6 6 11 1 17 -2 13 -5z"/>
<path d="M5506 7090 c6 -6 28 -13 50 -15 l39 -5 -35 14 c-43 18 -68 20 -54 6z"/>
<path d="M4102 6861 c4 -55 10 -75 24 -86 18 -14 18 -14 -5 -15 l-24 0 7 -92
c3 -51 11 -110 16 -130 10 -33 8 -42 -11 -68 -13 -16 -32 -30 -43 -30 -47 -1
-49 -6 -42 -196 7 -191 12 -234 27 -234 5 0 16 12 26 28 9 15 32 47 50 71 19
25 31 51 29 58 -3 7 1 13 10 13 8 0 24 16 35 35 12 19 25 35 31 35 5 0 18 20
29 45 11 25 24 45 29 45 5 0 10 12 12 28 2 22 8 27 26 25 29 -4 56 51 41 80
-6 9 -8 21 -5 26 3 5 -1 14 -8 21 -21 17 -57 88 -46 92 6 2 40 132 40 156 0 1
-24 2 -54 2 -44 0 -55 -4 -59 -17 -3 -12 -5 -10 -6 7 -1 24 0 25 59 22 50 -3
60 -1 60 12 0 9 -6 16 -12 17 -7 0 -3 4 10 9 12 5 22 18 22 28 0 15 -15 24
-67 40 -38 12 -86 24 -108 27 -22 4 -53 9 -69 12 l-29 5 5 -71z"/>
<path d="M6123 6873 c-7 -3 -13 -11 -13 -18 0 -7 -8 -16 -17 -20 -16 -6 -15
-8 7 -20 40 -23 50 -19 43 17 -4 22 -3 29 5 24 7 -4 12 -3 12 2 0 12 -21 20
-37 15z"/>
<path d="M1364 6845 c-11 -27 7 -268 22 -304 13 -31 17 -33 48 -28 44 7 86 35
86 56 0 18 -80 179 -111 222 -10 15 -19 34 -19 42 0 23 -19 31 -26 12z"/>
<path d="M6035 6783 c-11 -3 -57 -32 -102 -64 -45 -33 -108 -74 -140 -92 l-58
-33 -6 -99 c-5 -97 -7 -96 -15 9 -5 68 -10 79 -31 67 -10 -5 -31 -12 -46 -16
l-28 -6 2 -254 c1 -168 5 -255 12 -255 6 0 25 -16 43 -36 47 -51 55 -126 28
-263 -7 -37 -12 -32 95 -113 33 -25 56 -37 59 -30 2 7 8 12 14 12 7 0 7 -4 0
-13 -8 -9 4 -24 50 -61 34 -27 80 -60 102 -72 23 -13 52 -33 66 -45 14 -12 35
-31 47 -42 l22 -20 -5 704 c-3 387 -9 707 -12 710 -10 10 -74 17 -97 12z"/>
<path d="M7467 6439 c-191 -388 -201 -413 -201 -544 -1 -78 -5 -97 -29 -145
-26 -51 -27 -59 -17 -110 35 -188 122 -394 206 -488 45 -52 48 -53 93 -50 41
3 48 7 65 38 10 19 26 44 36 55 17 18 19 44 19 295 1 229 -2 278 -14 294 -23
30 -19 112 6 147 16 23 18 33 9 44 -9 11 -6 17 14 30 21 14 24 22 19 53 -8 49
-21 74 -36 66 -7 -4 -4 2 7 14 18 20 18 26 3 134 -9 62 -19 140 -22 173 -9 92
-26 198 -35 214 -5 9 -48 -68 -123 -220z m94 -360 c-13 -11 -27 -17 -30 -13
-7 7 28 34 43 34 6 -1 0 -10 -13 -21z m19 -95 c0 -2 -7 -4 -15 -4 -8 0 -15 4
-15 10 0 5 7 7 15 4 8 -4 15 -8 15 -10z"/>
<path d="M7377 6481 c-72 -35 -97 -58 -97 -87 0 -42 -21 -79 -74 -129 -60 -58
-76 -102 -76 -213 l0 -69 41 -7 c23 -4 42 -5 43 -4 1 2 17 41 35 88 19 47 48
110 66 140 46 77 135 269 135 291 0 24 -3 24 -73 -10z"/>
<path d="M1525 6436 c-11 -7 -42 -16 -68 -20 -27 -4 -57 -16 -68 -27 -38 -38
-15 -129 42 -169 19 -13 63 -53 98 -89 36 -36 71 -66 80 -66 9 0 19 -18 26
-50 7 -27 16 -58 20 -67 5 -13 3 -18 -9 -18 -17 0 -36 29 -36 58 0 23 -64 97
-77 89 -5 -3 -26 14 -47 38 -20 25 -46 45 -56 45 -18 0 -19 -7 -16 -112 l3
-113 49 -7 c67 -8 294 -11 302 -3 6 5 -11 84 -44 202 -9 28 -26 68 -40 88 -13
20 -38 75 -54 122 -17 47 -35 92 -41 99 -15 18 -39 18 -64 0z"/>
<path d="M4401 6368 c-35 -35 -70 -78 -78 -95 -7 -18 -18 -33 -23 -33 -6 0
-10 -6 -10 -14 0 -8 -5 -16 -12 -18 -21 -7 14 -88 87 -198 39 -58 72 -107 75
-110 3 -3 13 -21 22 -40 10 -19 40 -69 66 -111 45 -70 72 -139 54 -139 -4 0
-14 17 -21 38 -17 47 -133 240 -241 400 -60 90 -85 120 -94 113 -31 -26 -125
-171 -140 -215 -21 -66 -20 -83 7 -101 42 -27 87 -102 100 -162 13 -66 28 -81
107 -120 70 -34 154 -85 159 -96 3 -8 81 -45 99 -47 4 -1 10 9 14 22 5 19 6
18 7 -11 1 -26 4 -32 17 -27 8 3 12 2 9 -3 -3 -5 6 -22 21 -38 l25 -28 -4 90
c-5 84 -30 180 -46 171 -3 -2 -7 17 -8 43 l-2 46 20 -51 c11 -29 30 -63 42
-76 12 -14 27 -34 33 -44 17 -29 59 -40 88 -25 14 8 31 11 39 8 26 -10 102 20
243 96 165 88 339 199 348 222 3 9 3 35 0 57 -6 36 -15 46 -84 97 -43 32 -113
77 -156 101 -44 24 -101 56 -129 72 -27 15 -106 55 -175 88 -69 34 -138 68
-155 77 -138 72 -201 107 -209 114 -18 17 -32 9 -95 -53z m186 -645 c-2 -16
-4 -5 -4 22 0 28 2 40 4 28 2 -13 2 -35 0 -50z"/>
<path d="M6184 6040 c-1 -195 2 -322 5 -281 3 41 4 201 1 355 l-6 281 0 -355z"/>
<path d="M1321 6189 c-1 -58 9 -109 20 -109 10 0 1 103 -12 135 -6 14 -8 7 -8
-26z"/>
<path d="M1862 5860 c-20 -9 -22 -14 -16 -47 10 -60 28 -80 81 -93 82 -19 77
-22 84 55 4 41 2 75 -3 83 -12 14 -111 15 -146 2z"/>
<path d="M1700 5835 c-19 -7 -51 -14 -70 -15 l-35 -2 42 -19 c49 -22 150 -45
160 -35 3 3 1 24 -6 46 -13 45 -29 49 -91 25z"/>
<path d="M5330 5726 c-58 -36 -143 -86 -190 -112 -47 -26 -104 -60 -127 -76
-53 -36 -194 -96 -210 -91 -7 3 -16 -3 -19 -12 -5 -12 -9 -13 -14 -4 -15 22
-40 1 -40 -33 0 -96 2 -99 123 -160 139 -70 150 -74 196 -55 20 8 55 20 78 26
45 12 71 34 94 79 16 31 39 57 39 45 1 -15 50 71 107 187 31 63 67 129 80 146
27 37 28 48 5 92 l-18 33 -104 -65z"/>
<path d="M1435 5750 c-3 -11 -4 -23 -1 -28 2 -4 14 -131 26 -282 11 -151 25
-288 31 -305 5 -16 24 -39 42 -51 157 -101 169 -108 185 -98 18 11 152 184
152 196 0 4 5 19 10 33 9 23 13 25 25 15 12 -10 22 -5 56 29 33 32 39 44 30
55 -9 11 -6 15 14 20 54 14 70 116 36 236 -17 62 -20 66 -62 81 -24 9 -59 20
-76 24 l-33 7 0 -56 c0 -63 -12 -72 -30 -23 -34 92 -36 94 -102 115 -81 27
-206 52 -257 52 -31 0 -41 -4 -46 -20z m465 -395 c8 2 24 -2 35 -11 19 -14 19
-15 -7 -40 l-26 -26 -13 28 c-9 18 -26 32 -46 38 -46 13 -41 26 5 15 20 -4 44
-6 52 -4z"/>
<path d="M5510 5673 c-11 -21 -41 -67 -66 -102 -27 -38 -44 -72 -41 -82 3 -10
0 -16 -7 -13 -6 2 -47 -53 -90 -122 -81 -130 -103 -180 -72 -168 11 4 15 2 11
-8 -3 -7 8 -27 25 -43 16 -16 30 -34 30 -41 0 -23 27 -32 132 -43 119 -13 152
-14 288 -8 65 3 113 11 151 26 62 24 89 20 122 -17 40 -44 29 -161 -18 -208
-31 -31 -78 -31 -165 -1 -56 19 -65 26 -68 48 -2 15 -14 37 -27 49 -22 20 -36
24 -117 26 -82 2 -90 0 -73 -13 19 -13 17 -14 -20 -11 -22 1 -46 8 -54 16 -10
10 -32 13 -73 10 -60 -4 -68 0 -43 26 22 21 19 26 -15 26 -26 0 -33 -7 -56
-52 -30 -60 -35 -64 -86 -78 -21 -6 -38 -14 -38 -18 0 -4 16 -34 36 -67 20
-33 46 -80 58 -105 12 -25 37 -69 56 -99 l35 -54 5 39 5 39 8 -49 c8 -54 37
-109 105 -199 49 -65 78 -81 162 -92 102 -13 265 -46 320 -65 30 -10 72 -22
92 -25 l37 -7 -29 58 c-20 42 -30 77 -32 121 -3 59 -1 64 31 96 18 19 50 42
71 52 37 16 37 18 44 83 11 124 7 256 -9 279 -14 19 -13 21 10 27 24 6 25 9
24 84 -1 60 -3 69 -9 42 l-7 -35 -2 32 c-1 29 -8 35 -87 78 -91 50 -104 65
-34 40 23 -8 60 -15 82 -15 l39 0 -5 73 c-5 63 -9 75 -33 94 -16 13 -31 23
-35 23 -5 0 -8 7 -8 15 0 8 -9 15 -20 15 -11 0 -20 5 -20 10 0 6 -28 11 -62
12 -54 1 -56 2 -18 5 25 3 50 9 55 15 7 7 -9 9 -55 5 -60 -4 -62 -4 -22 6 23
5 42 13 41 16 0 3 -25 26 -55 51 -31 25 -83 69 -117 99 -140 121 -150 125
-158 56 l-6 -50 -1 56 c-2 65 -13 79 -64 79 -33 0 -40 -4 -58 -37z m127 -150
c-3 -10 -5 -4 -5 12 0 17 2 24 5 18 2 -7 2 -21 0 -30z m226 -140 c-7 -2 -19
-2 -25 0 -7 3 -2 5 12 5 14 0 19 -2 13 -5z m-44 -7 c-7 -7 -199 -9 -206 -2 -3
3 42 6 102 6 60 0 106 -2 104 -4z m-231 -13 c-10 -2 -28 -2 -40 0 -13 2 -5 4
17 4 22 1 32 -1 23 -4z m-248 -263 c0 -5 -4 -10 -10 -10 -5 0 -10 5 -10 10 0
6 5 10 10 10 6 0 10 -4 10 -10z m577 -846 c-3 -3 -12 -4 -19 -1 -8 3 -5 6 6 6
11 1 17 -2 13 -5z"/>
<path d="M7096 5663 c-29 -43 -295 -302 -409 -400 -56 -48 -115 -100 -131
-114 l-29 -27 84 -27 c46 -14 99 -28 117 -29 18 -2 35 -6 39 -10 3 -3 14 -6
24 -6 12 0 18 12 23 44 10 62 43 90 109 92 l51 2 21 109 c21 105 62 229 72
219 3 -2 -4 -33 -16 -68 -11 -35 -28 -107 -37 -161 l-16 -99 22 -31 c13 -17
26 -44 29 -60 5 -24 16 -33 56 -49 28 -11 79 -33 114 -49 36 -17 72 -27 82
-24 16 5 39 58 39 89 0 5 7 14 16 21 23 16 12 55 -27 100 -17 19 -26 35 -20
35 8 0 7 9 -2 28 -18 35 -82 229 -101 307 -28 114 -38 135 -66 135 -16 0 -32
-10 -44 -27z m2 -68 c-38 -35 -63 -45 -56 -22 4 11 75 57 88 57 3 0 -12 -16
-32 -35z m-8 -45 c0 -5 -5 -10 -11 -10 -5 0 -7 5 -4 10 3 6 8 10 11 10 2 0 4
-4 4 -10z"/>
<path d="M3792 5607 c-19 -6 -47 -26 -63 -46 -77 -96 -120 -152 -169 -221 -89
-126 -137 -176 -239 -250 l-98 -72 3 -46 c6 -95 16 -179 22 -189 5 -7 20 -9
42 -4 65 14 146 -23 175 -80 10 -19 23 -29 38 -29 35 0 251 37 372 64 61 13
158 32 216 41 61 10 115 24 128 34 l23 18 -17 70 c-23 96 -22 95 -82 77 -37
-11 -57 -12 -71 -5 -10 5 -23 6 -28 2 -5 -5 -25 -11 -46 -14 l-36 -5 -10 56
c-6 31 -8 60 -6 64 3 4 16 3 30 -2 39 -15 95 -12 116 7 11 9 18 11 18 5 0 -7
8 -12 19 -12 15 0 18 6 16 33 -2 17 -4 34 -5 37 -3 7 -7 22 -8 38 -1 6 -9 12
-18 12 -9 0 -14 6 -12 12 8 24 -47 41 -204 62 -32 4 -37 2 -41 -17 -4 -22 -4
-22 -6 0 -1 21 -5 23 -56 21 -30 -1 -55 1 -55 5 0 4 0 14 0 22 0 8 9 15 19 15
11 0 22 8 24 18 4 13 5 11 6 -5 1 -19 7 -23 34 -23 17 0 83 -10 145 -21 62
-12 115 -19 119 -16 7 7 -18 78 -54 154 l-25 52 -61 -4 c-59 -3 -63 -2 -75 23
-7 15 -15 46 -19 69 -7 53 -19 62 -61 50z m295 -489 c-3 -7 -5 -2 -5 12 0 14
2 19 5 13 2 -7 2 -19 0 -25z m-157 -42 c0 -1 -11 -17 -25 -36 -24 -33 -25 -33
-26 -9 -1 18 -3 16 -9 -11 l-7 -35 -2 42 c0 25 4 43 12 46 12 4 57 6 57 3z"/>
<path d="M4142 5524 c-23 -26 -48 -44 -61 -44 -28 0 -24 -19 40 -170 67 -162
125 -321 151 -419 l22 -83 50 7 c60 8 66 11 66 35 0 10 5 22 10 25 6 3 10 -3
10 -14 0 -18 6 -21 43 -21 23 0 58 5 77 10 19 6 62 13 95 16 33 3 64 8 68 11
9 5 2 191 -9 268 -5 30 -3 37 5 29 7 -7 14 -66 18 -152 5 -111 9 -142 20 -142
11 0 13 29 11 156 -3 145 -5 158 -23 168 -11 6 -26 19 -33 29 -24 32 -35 20
-29 -33 5 -40 3 -50 -8 -50 -12 0 -15 14 -15 58 0 61 -20 96 -51 90 -34 -7
-39 -79 -6 -102 l22 -17 -25 7 c-37 9 -40 15 -45 89 -5 72 -23 105 -57 105
-11 0 -17 4 -14 8 3 5 -32 30 -77 55 -45 26 -112 65 -149 86 l-66 39 -40 -44z
m448 -644 c0 -5 -2 -10 -4 -10 -3 0 -8 5 -11 10 -3 6 -1 10 4 10 6 0 11 -4 11
-10z"/>
<path d="M4673 5416 c6 -83 21 -118 32 -74 9 36 -2 105 -20 131 -16 21 -17 18
-12 -57z"/>
<path d="M6198 5211 c-14 -17 -15 -21 -2 -40 14 -19 13 -21 -1 -21 -9 0 -14
-4 -11 -8 6 -10 86 -2 86 9 0 5 -4 9 -10 9 -5 0 -10 6 -10 13 0 6 -8 22 -18
35 -17 22 -18 22 -34 3z"/>
<path d="M4776 5162 c-9 -8 -7 -255 2 -268 5 -9 29 -7 92 7 105 22 105 22 90
4 -10 -12 -10 -15 0 -15 7 0 10 -7 7 -15 -5 -11 3 -14 38 -13 l44 1 -21 28
c-12 15 -35 35 -52 43 -31 15 -62 53 -52 63 3 3 16 -7 30 -22 22 -24 25 -25
23 -7 0 12 -6 20 -11 19 -6 -1 -10 13 -11 32 0 25 -8 40 -32 60 -42 35 -140
91 -147 83z"/>
<path d="M6290 5155 c0 -8 7 -15 15 -15 8 0 15 7 15 15 0 8 -7 15 -15 15 -8 0
-15 -7 -15 -15z"/>
<path d="M6366 5083 c-3 -3 -27 -5 -53 -5 -28 -1 -55 -7 -65 -16 -11 -9 -18
-11 -18 -4 0 6 -7 9 -15 6 -12 -5 -15 -25 -15 -90 0 -46 3 -84 8 -84 30 0 82
23 82 37 0 13 3 13 16 2 13 -10 17 -10 25 2 5 8 9 19 9 24 0 6 4 4 9 -4 12
-19 49 7 95 66 42 54 44 63 14 64 -13 1 -37 2 -55 4 -18 1 -34 0 -37 -2z"/>
<path d="M6494 5038 c-9 -18 -27 -46 -40 -61 -13 -16 -25 -41 -25 -55 -2 -24
-2 -24 -6 -4 -2 12 -8 22 -12 22 -14 0 -41 -36 -41 -54 0 -14 -5 -17 -24 -12
-32 8 -36 -6 -36 -110 0 -60 4 -84 13 -84 9 0 9 -2 0 -8 -15 -9 -16 -151 -2
-169 16 -19 28 -16 39 10 9 19 10 18 7 -11 -3 -28 -1 -33 15 -29 10 3 18 1 18
-4 0 -36 71 49 132 158 35 63 74 120 180 268 l67 94 -126 40 c-69 23 -129 41
-134 41 -5 0 -16 -15 -25 -32z"/>
<path d="M7035 4992 c-13 -24 -35 -45 -65 -60 -50 -25 -62 -43 -122 -196 -22
-56 -57 -137 -78 -181 -39 -83 -70 -154 -70 -163 0 -2 30 -2 68 2 140 13 253
18 429 17 l182 -1 53 43 53 44 -3 114 c-3 109 -4 114 -29 134 -15 11 -53 48
-86 83 -66 69 -91 80 -138 63 -46 -16 -48 -6 -5 20 43 25 41 28 -64 73 -36 15
-73 31 -82 37 -23 12 -20 14 -43 -29z"/>
<path d="M6799 4938 c-13 -18 -30 -38 -39 -45 -8 -7 -12 -13 -8 -13 4 0 -9
-17 -29 -37 -53 -57 -90 -116 -75 -121 6 -2 12 -8 12 -14 0 -6 -6 -5 -15 2
-18 15 -15 18 -50 -40 -26 -43 -106 -162 -133 -200 -12 -17 -8 -20 45 -35 32
-10 77 -20 100 -23 l42 -5 38 79 c21 44 37 85 36 91 0 7 3 11 7 8 5 -3 11 -1
15 5 3 5 0 10 -7 11 -7 0 -3 5 10 11 12 6 22 16 22 23 0 7 -10 17 -22 23 -23
11 -23 11 2 6 23 -4 28 1 52 50 38 77 67 218 49 240 -19 23 -27 20 -52 -16z
m-239 -414 c0 -2 -7 -4 -15 -4 -8 0 -15 4 -15 10 0 5 7 7 15 4 8 -4 15 -8 15
-10z"/>
<path d="M1493 4894 c3 -20 8 -39 11 -41 4 -4 48 22 76 45 11 8 -35 32 -63 32
-28 0 -29 -1 -24 -36z"/>
<path d="M6238 4863 l-38 -4 0 -145 c0 -81 5 -154 10 -165 13 -24 36 -25 49
-1 9 15 10 15 11 -5 0 -13 5 -23 10 -23 6 0 10 65 10 175 0 96 -3 174 -7 173
-5 -1 -25 -3 -45 -5z"/>
<path d="M7502 4838 c-8 -28 -6 -36 12 -50 19 -16 21 -16 27 0 8 22 -4 75 -18
79 -7 3 -16 -11 -21 -29z"/>
<path d="M4818 4848 c-51 -11 -50 -9 -61 -103 -2 -16 -5 -4 -6 29 l-1 59 -75
-6 c-113 -10 -120 -18 -41 -55 36 -17 66 -36 66 -42 0 -6 -11 -3 -26 6 -28 19
-169 55 -187 49 -7 -3 -45 -7 -86 -9 -41 -3 -78 -9 -84 -15 -6 -6 -2 -43 11
-102 15 -69 26 -98 44 -112 18 -15 19 -18 4 -13 -16 6 -18 3 -12 -26 10 -51
78 -188 93 -188 7 0 13 7 13 17 0 15 2 15 19 -1 17 -16 22 -16 48 -2 16 8 38
30 48 50 10 19 23 32 28 29 5 -3 8 0 5 7 -2 7 -39 26 -82 43 -42 16 -75 31
-73 33 2 2 42 -9 89 -25 47 -16 89 -26 94 -22 24 16 94 152 95 183 1 18 4 44
8 58 7 22 9 19 16 -23 l7 -48 22 29 c11 16 41 56 66 88 25 33 55 74 67 92 l22
32 -42 -1 c-23 -1 -63 -6 -89 -11z"/>
<path d="M7586 4812 c-4 -29 -5 -56 -2 -59 12 -13 17 6 14 58 l-3 54 -9 -53z"/>
<path d="M1620 4815 c-38 -41 -12 -51 38 -15 23 17 42 32 42 35 0 3 -13 5 -28
5 -18 0 -38 -10 -52 -25z"/>
<path d="M4954 4819 c-11 -6 -28 -23 -37 -37 -9 -15 -26 -40 -39 -56 -87 -109
-110 -140 -157 -216 -30 -47 -76 -115 -102 -152 -48 -66 -48 -66 -28 -84 45
-41 97 -123 180 -284 53 -104 94 -153 187 -228 85 -67 379 -253 419 -265 5 -1
7 -5 6 -8 -4 -11 127 -33 194 -33 35 -1 63 -4 63 -8 0 -12 103 -9 139 3 18 6
30 14 28 18 -42 78 -61 132 -61 176 0 77 6 135 16 141 13 8 9 54 -4 54 -7 0
-24 9 -38 20 l-25 20 26 -9 c42 -15 42 -2 1 37 -20 19 -29 29 -19 22 31 -22
18 3 -41 81 -160 212 -174 229 -192 229 -10 0 -20 5 -22 11 -3 8 -55 15 -148
20 -80 4 -178 15 -218 23 -40 9 -75 16 -78 16 -11 0 -2 -24 14 -37 16 -13 15
-14 -8 -9 -14 2 -45 11 -70 20 -25 9 -58 19 -75 22 -17 4 -24 9 -16 12 7 2 37
-1 66 -8 74 -18 90 -7 30 20 -53 24 -119 70 -80 56 137 -50 250 -71 441 -81
87 -5 123 -4 128 4 9 13 -72 151 -145 247 -28 37 -62 91 -75 118 -30 62 -90
146 -105 146 -6 0 -2 -12 9 -27 38 -55 35 -57 -16 -10 -43 39 -57 47 -89 46
-21 0 -47 -5 -59 -10z m323 -595 c-3 -3 -12 -4 -19 -1 -8 3 -5 6 6 6 11 1 17
-2 13 -5z m223 -204 c13 -8 13 -10 -2 -10 -9 0 -20 5 -23 10 -8 13 5 13 25 0z
m175 -51 c11 -17 -1 -21 -15 -4 -8 9 -8 15 -2 15 6 0 14 -5 17 -11z m-34 -36
c13 -16 12 -17 -3 -4 -10 7 -18 15 -18 17 0 8 8 3 21 -13z m-24 -210 c-2 -16
-4 -5 -4 22 0 28 2 40 4 28 2 -13 2 -35 0 -50z m18 -53 c17 -11 26 -20 22 -20
-11 0 -67 29 -67 35 0 10 16 4 45 -15z m95 -56 c0 -2 -7 -4 -15 -4 -8 0 -15 4
-15 10 0 5 7 7 15 4 8 -4 15 -8 15 -10z"/>
<path d="M7670 4495 c0 -104 7 -126 27 -82 6 12 30 43 53 70 36 40 40 50 29
63 -14 17 -82 54 -99 54 -6 0 -10 -39 -10 -105z"/>
<path d="M2110 4581 c0 -16 58 -117 76 -132 8 -7 21 -27 29 -46 9 -20 21 -33
32 -33 20 0 196 123 201 140 2 6 -3 21 -11 34 -14 21 -25 24 -139 30 -68 4
-138 9 -155 13 -21 3 -33 1 -33 -6z"/>
<path d="M8726 4493 c-14 -15 -51 -59 -82 -98 -145 -182 -207 -258 -254 -311
-27 -31 -50 -61 -50 -66 0 -26 216 13 289 52 52 27 110 72 115 88 22 74 25
111 10 141 -25 50 -29 132 -9 175 22 47 14 56 -19 19z"/>
<path d="M7498 4421 c-24 -22 -40 -42 -36 -46 3 -4 27 -3 52 0 44 7 46 9 46
41 0 18 -4 36 -10 39 -5 3 -29 -12 -52 -34z"/>
<path d="M6262 4405 c-46 -20 -66 -72 -58 -149 3 -32 11 -65 17 -72 14 -17 52
-18 95 -2 31 11 33 14 39 77 9 100 13 104 14 19 0 -43 5 -78 10 -78 5 0 29 12
55 26 43 24 63 21 32 -5 -9 -7 -13 -25 -11 -44 2 -18 1 -27 -1 -21 -3 7 -27 1
-69 -20 -75 -36 -75 -37 -75 -196 0 -77 4 -110 13 -113 10 -4 10 -6 0 -6 -8
-1 -13 -15 -13 -38 0 -20 -3 -34 -6 -30 -3 3 -5 78 -5 166 2 175 4 169 -59
173 l-35 3 -3 -147 -3 -148 43 -2 43 -1 -45 -6 -45 -6 2 -84 c3 -94 16 -146
39 -155 22 -8 31 -1 37 31 4 16 10 46 15 68 9 39 10 39 11 -25 l2 -65 25 70
c49 138 64 188 65 219 0 17 4 49 9 71 7 31 8 23 5 -40 -4 -78 -4 -79 9 -40 16
47 102 242 180 409 31 66 55 120 54 121 -2 1 -53 13 -115 25 -88 18 -115 21
-127 11 -11 -9 -15 -9 -19 1 -3 8 -6 5 -7 -7 -1 -19 -2 -18 -10 3 -11 26 -56
29 -108 7z m44 -691 c-4 -9 -9 -15 -11 -12 -3 3 -3 13 1 22 4 9 9 15 11 12 3
-3 3 -13 -1 -22z"/>
<path d="M7830 4353 c0 -22 2 -25 10 -13 13 20 13 40 0 40 -5 0 -10 -12 -10
-27z"/>
<path d="M6957 4364 c-3 -3 -55 -5 -116 -5 -61 0 -117 -2 -125 -5 -12 -5 -13
-29 -9 -142 3 -75 10 -143 16 -149 6 -9 6 -13 -2 -13 -6 0 -11 -17 -11 -41 0
-24 -4 -38 -10 -34 -6 4 -10 -14 -10 -47 0 -29 -3 -104 -7 -165 -4 -82 -3
-113 5 -113 15 0 57 66 66 102 3 15 15 36 27 46 15 15 25 50 42 152 15 88 27
135 36 138 10 3 12 -2 8 -24 -15 -67 -38 -257 -32 -263 4 -3 16 5 27 19 47 59
81 92 121 117 23 14 58 39 77 55 19 15 39 28 44 28 5 0 30 19 57 43 26 23 84
69 128 102 74 56 102 85 66 71 -23 -8 -18 16 10 59 25 35 25 38 8 50 -10 8
-32 16 -48 19 -37 7 -361 7 -368 0z"/>
<path d="M6606 4208 c-70 -146 -176 -405 -176 -429 0 -8 -8 -28 -19 -45 -26
-43 -51 -150 -51 -221 l0 -61 83 -4 c68 -2 90 1 130 19 l47 22 0 131 c0 80 4
130 10 130 6 0 10 19 10 43 0 23 9 92 19 152 23 128 39 405 24 405 -5 0 -40
-64 -77 -142z"/>
<path d="M8824 4315 l-35 -37 21 -15 c26 -18 41 -7 58 44 16 48 -3 51 -44 8z"/>
<path d="M7707 4280 c-37 -36 -39 -42 -52 -138 -7 -55 -23 -130 -35 -167 -18
-55 -20 -71 -10 -95 12 -28 13 -64 4 -175 -12 -156 -15 -338 -6 -347 14 -14
69 0 77 20 4 9 9 33 11 52 3 19 9 62 14 95 18 112 29 249 35 430 3 99 8 222
11 273 4 50 2 92 -2 91 -5 0 -26 -18 -47 -39z"/>
<path d="M5544 4235 c23 -43 147 -213 200 -274 61 -70 68 -74 137 -65 l46 5
18 72 c10 40 22 77 28 82 7 7 8 5 5 -5 -19 -56 -38 -133 -34 -137 3 -3 18 -6
35 -8 16 -1 37 -9 46 -18 9 -10 27 -20 40 -23 13 -3 35 -24 50 -46 15 -22 28
-38 30 -36 10 9 16 218 8 273 -7 54 -11 60 -33 64 -14 1 -28 8 -32 14 -4 6
-18 12 -32 12 -13 1 -32 7 -40 14 -9 8 -37 16 -64 19 -26 3 -52 12 -57 19 -10
14 -59 22 -291 50 -69 8 -70 8 -60 -12z m338 -47 c-9 -9 -15 -9 -24 0 -9 9 -7
12 12 12 19 0 21 -3 12 -12z"/>
<path d="M1915 4163 l-30 -14 30 6 c31 7 41 12 34 19 -2 2 -17 -3 -34 -11z"/>
<path d="M1764 4148 c-11 -18 25 -39 47 -27 23 12 24 25 3 33 -24 9 -42 7 -50
-6z"/>
<path d="M7298 4107 c-59 -40 -79 -59 -84 -82 -4 -16 -9 -24 -11 -17 -14 39
-62 -9 -64 -64 -1 -24 -3 -30 -6 -16 -7 39 -29 36 -87 -12 -31 -25 -91 -69
-134 -98 l-77 -53 74 -8 c92 -10 117 -4 139 33 17 27 19 28 30 9 26 -41 61
-12 63 53 2 30 2 31 6 6 6 -38 17 -35 43 9 12 21 30 43 41 51 10 7 50 55 88
106 38 52 74 97 80 100 17 11 13 36 -6 35 -10 0 -53 -24 -95 -52z"/>
<path d="M7383 4058 c-17 -18 -48 -60 -70 -94 -21 -33 -55 -82 -76 -110 -120
-159 -124 -167 -82 -206 22 -21 55 -116 55 -160 0 -11 7 -18 19 -18 10 0 49
-9 86 -21 l66 -20 39 35 c21 19 54 38 73 41 32 6 35 10 41 52 12 88 10 95 -24
88 -41 -9 -117 35 -126 72 -9 35 20 124 50 152 13 12 43 28 67 35 43 13 44 14
56 72 18 86 19 84 -34 84 -27 0 -61 7 -77 15 -15 8 -29 15 -30 15 -1 0 -16
-15 -33 -32z"/>
<path d="M7827 4043 c-6 -54 6 -93 28 -93 12 0 15 14 15 70 0 62 -2 70 -19 70
-15 0 -19 -10 -24 -47z"/>
<path d="M4599 4038 c-27 -29 -53 -68 -48 -72 11 -11 232 -136 235 -134 3 3
-14 43 -45 107 -21 44 -89 121 -106 121 -8 0 -24 -10 -36 -22z"/>
<path d="M4496 3918 c-13 -18 -50 -87 -81 -153 -31 -66 -67 -140 -79 -165 -13
-25 -45 -97 -71 -160 -26 -63 -69 -164 -95 -225 -70 -160 -83 -195 -76 -202 8
-8 126 29 126 39 0 5 6 8 13 8 6 0 45 14 86 30 40 17 84 30 98 30 13 0 33 5
44 11 17 8 54 -9 232 -106 311 -170 552 -290 633 -314 84 -25 144 -28 144 -7
0 29 -42 112 -89 175 -49 66 -144 221 -139 226 3 3 127 -181 222 -327 l37 -58
53 0 c71 0 87 15 132 125 20 50 45 113 57 140 17 41 21 79 25 210 3 128 1 163
-9 172 -8 6 -68 18 -134 26 -150 19 -189 33 -323 111 -59 34 -144 79 -189 101
-46 21 -83 42 -83 47 0 5 -4 7 -9 4 -5 -3 -26 0 -47 8 -71 24 -94 27 -94 13 0
-24 91 -164 201 -308 15 -20 47 -71 71 -115 24 -43 52 -91 62 -106 10 -16 16
-28 13 -28 -3 0 -27 34 -53 76 -26 42 -52 81 -58 87 -6 7 -62 89 -123 182
-150 230 -175 259 -186 218 -3 -10 -5 9 -6 43 l-1 60 -92 61 c-76 49 -171 103
-184 103 -2 0 -14 -15 -28 -32z"/>
<path d="M7922 3858 c3 -20 9 -22 71 -23 37 -1 67 1 67 5 0 9 -95 40 -122 40
-14 0 -19 -6 -16 -22z"/>
<path d="M7825 3818 c-7 -37 -5 -44 16 -59 51 -38 60 -50 57 -77 -3 -23 -8
-28 -38 -30 -19 -2 -38 -9 -42 -15 -12 -18 -9 -115 3 -123 19 -11 69 49 106
126 20 41 43 83 51 92 13 16 13 18 -4 24 -49 15 -64 25 -90 63 -16 22 -34 41
-41 41 -6 0 -14 -19 -18 -42z"/>
<path d="M4855 3760 c-13 -22 23 -57 72 -70 91 -23 91 -23 58 4 -47 40 -123
78 -130 66z"/>
<path d="M6777 3609 c-36 -121 -62 -299 -47 -327 4 -9 28 4 81 45 96 76 124
93 149 93 18 0 20 6 20 73 0 74 24 137 52 137 6 0 2 10 -10 23 -15 16 -18 26
-11 39 13 24 4 27 -102 34 l-95 7 -37 -124z"/>
<path d="M6742 3658 c-18 -35 -42 -80 -53 -101 -21 -37 -55 -230 -43 -248 3
-5 13 -9 22 -9 9 -1 2 -7 -15 -15 -32 -14 -48 -33 -18 -21 8 3 15 1 15 -3 0
-5 -6 -11 -12 -14 -8 -3 -3 -9 12 -15 43 -17 50 -4 54 103 5 109 27 222 51
259 9 13 13 31 9 41 -4 10 -3 16 2 13 5 -3 10 12 11 33 2 21 1 39 0 39 -2 0
-17 -28 -35 -62z"/>
<path d="M6182 3650 c0 -19 2 -27 5 -17 2 9 2 25 0 35 -3 9 -5 1 -5 -18z"/>
<path d="M2720 3560 c0 -15 40 -38 105 -60 62 -21 95 -25 95 -12 0 9 -91 49
-159 71 -41 13 -41 13 -41 1z"/>
<path d="M6573 3444 c-18 -8 -33 -17 -33 -22 0 -4 13 -26 28 -48 15 -23 32
-49 37 -58 7 -13 10 5 11 63 1 45 -2 81 -5 80 -3 0 -21 -7 -38 -15z"/>
<path d="M6404 3430 c-15 -5 -12 -11 17 -32 40 -30 119 -71 125 -65 7 6 -23
72 -38 84 -16 13 -80 21 -104 13z"/>
<path d="M6223 3403 c-21 -4 -23 -10 -23 -74 0 -38 3 -69 8 -69 18 0 74 42 81
62 l8 23 7 -23 c9 -28 14 -23 -52 -56 -29 -15 -55 -32 -58 -39 -2 -7 -3 -74
-2 -149 l3 -136 63 20 c44 13 62 24 62 36 0 12 3 13 8 4 10 -14 142 50 259
126 71 46 86 62 60 62 -7 0 -33 10 -58 22 -24 12 -52 21 -62 20 -10 0 -15 4
-11 10 3 5 17 8 31 5 22 -4 23 -3 10 17 -14 21 -29 30 -145 85 -61 29 -63 29
-57 8 6 -22 6 -22 -12 -2 -21 22 -76 56 -90 54 -4 -1 -18 -4 -30 -6z m117 -78
c0 -8 -4 -15 -10 -15 -5 0 -7 7 -4 15 4 8 8 15 10 15 2 0 4 -7 4 -15z"/>
<path d="M6125 3368 c-12 -7 -49 -11 -90 -9 -38 1 -108 3 -154 4 l-84 2 2 -70
c3 -105 -23 -254 -74 -409 -25 -77 -45 -150 -45 -162 0 -12 12 -36 26 -53 21
-26 33 -31 67 -31 30 0 45 5 54 19 11 17 101 73 233 144 65 35 73 42 76 62 1
9 -8 17 -24 21 -44 9 -49 14 -13 10 l35 -3 -30 23 -29 24 36 0 c33 0 37 3 43
31 8 40 8 110 0 188 -5 46 -11 61 -23 61 -9 0 -24 7 -35 15 -17 13 -14 14 25
17 l44 3 3 63 c3 66 -3 73 -43 50z m-68 -444 c-3 -3 -12 -4 -19 -1 -8 3 -5 6
6 6 11 1 17 -2 13 -5z"/>
<path d="M6918 3342 c-37 -19 -65 -38 -63 -42 2 -4 31 -13 64 -20 53 -11 62
-11 76 4 9 9 23 16 31 16 12 0 11 6 -5 29 -12 16 -21 34 -21 40 0 15 -7 13
-82 -27z"/>
<path d="M6799 3243 c-48 -57 -311 -263 -335 -263 -16 0 -74 -58 -75 -75 -1
-17 -2 -17 -6 -2 -5 20 -8 20 -34 7 -10 -6 -19 -18 -20 -28 0 -10 -3 -12 -6
-4 -7 17 -23 15 -23 -4 0 -11 -5 -14 -17 -10 -23 9 -83 -24 -89 -49 -3 -11 -4
-66 -2 -122 l3 -102 45 30 c25 17 46 35 46 40 1 5 2 15 3 22 1 9 3 9 10 -1 15
-24 60 6 67 46 7 34 56 92 78 92 6 -1 -6 -14 -26 -31 -28 -22 -38 -39 -38 -59
0 -24 3 -27 23 -24 12 3 0 -7 -27 -21 -26 -15 -51 -35 -53 -46 -3 -10 -9 -17
-13 -14 -4 3 -13 -2 -20 -10 -7 -8 -16 -15 -21 -15 -4 0 -23 -10 -43 -22 l-35
-23 -1 -97 c0 -54 4 -98 9 -98 30 0 228 137 216 149 -3 2 -13 -3 -23 -12 -41
-37 -29 -14 16 31 88 88 168 180 164 191 -2 6 1 11 7 11 6 0 11 6 11 13 0 6
24 38 53 69 28 31 62 71 75 87 13 17 29 31 37 31 7 0 20 16 29 35 9 19 24 40
34 47 41 31 174 220 162 231 -3 3 -41 8 -85 12 -70 6 -82 4 -96 -12z m-412
-430 c-3 -10 -5 -4 -5 12 0 17 2 24 5 18 2 -7 2 -21 0 -30z m-45 -63 c-2 -33
-7 -60 -10 -60 -4 0 -5 27 -4 60 2 33 7 60 10 60 4 0 5 -27 4 -60z"/>
<path d="M7009 3201 c-66 -89 -190 -245 -267 -336 -52 -60 -126 -147 -165
-193 -39 -46 -79 -96 -88 -110 -9 -15 -35 -45 -58 -67 -22 -21 -41 -45 -41
-53 0 -7 -4 -11 -9 -8 -13 8 -62 -34 -55 -46 4 -6 2 -8 -4 -4 -6 3 -27 -5 -48
-19 -20 -14 -42 -25 -49 -25 -29 0 -34 -30 -36 -217 l-2 -192 28 -33 c15 -18
47 -46 71 -63 24 -16 44 -36 44 -43 0 -7 5 -10 12 -6 6 4 8 3 4 -4 -3 -6 -2
-13 4 -17 5 -3 10 -1 10 5 0 6 13 1 29 -11 l28 -21 50 36 c28 20 55 36 60 36
9 0 181 187 264 285 18 22 70 78 114 125 88 93 225 290 250 360 24 69 21 145
-10 230 -30 85 -65 207 -91 323 -9 43 -20 80 -24 82 -4 3 -14 -4 -21 -14z
m-302 -998 c-2 -38 -3 -7 -3 67 0 74 1 105 3 68 2 -38 2 -98 0 -135z"/>
<path d="M6171 3074 c0 -11 3 -14 6 -6 3 7 2 16 -1 19 -3 4 -6 -2 -5 -13z"/>
<path d="M6153 2809 c-8 -8 -14 -44 -15 -88 -1 -42 -3 -58 -5 -36 -2 22 -6 54
-8 72 l-6 32 -39 -20 c-32 -17 -41 -28 -48 -62 l-10 -42 -1 38 c-1 21 -5 37
-9 35 -67 -27 -172 -84 -169 -92 4 -12 155 -48 174 -41 7 2 15 0 18 -5 4 -6
37 -10 76 -10 l69 0 -1 93 c-1 110 -8 144 -26 126z"/>
<path d="M7521 2795 c-27 -24 -31 -33 -31 -78 0 -62 15 -120 35 -137 22 -19
43 45 47 146 3 99 -3 108 -51 69z"/>
<path d="M6440 2545 c-13 -14 -21 -27 -18 -30 2 -3 15 6 28 20 13 14 21 27 18
30 -2 3 -15 -6 -28 -20z"/>
<path d="M4010 2450 c0 -60 10 -78 46 -90 54 -18 57 -8 13 50 -58 78 -59 79
-59 40z"/>
<path d="M4137 2293 c-14 -14 -5 -80 16 -120 24 -46 105 -166 136 -200 21 -25
41 -32 22 -9 -10 11 -8 16 7 20 11 4 27 15 37 26 16 18 15 21 -37 82 -29 35
-77 96 -107 136 -53 71 -61 78 -74 65z"/>
<path d="M6174 2190 c0 -52 1 -74 3 -47 2 26 2 68 0 95 -2 26 -3 4 -3 -48z"/>
<path d="M4386 1985 c-3 -9 -17 -20 -31 -25 -30 -12 -31 -24 -4 -58 60 -78 90
-102 114 -96 17 4 25 2 25 -7 1 -9 6 -7 15 5 8 11 18 17 21 13 3 -3 -6 -17
-20 -31 l-27 -24 23 -16 c28 -20 127 -50 136 -42 12 12 -30 74 -107 156 -42
46 -82 91 -89 101 -21 30 -49 41 -56 24z"/>
<path d="M6184 1887 c-7 -19 2 -406 10 -414 8 -9 86 57 86 73 0 9 5 12 10 9 9
-6 15 8 11 29 -1 5 5 6 14 3 9 -4 15 -1 15 7 0 8 4 16 9 18 5 2 11 10 13 18 2
8 7 18 12 22 6 4 4 13 -3 22 -9 11 -10 16 -2 16 6 0 11 -5 11 -12 0 -8 6 -6
17 5 16 16 16 18 -6 41 -12 13 -19 26 -14 28 4 3 2 3 -6 1 -7 -2 -49 31 -92
73 -62 61 -80 73 -85 61z"/>
<path d="M7870 4819 c0 -5 5 -7 10 -4 6 3 10 8 10 11 0 2 -4 4 -10 4 -5 0 -10
-5 -10 -11z"/>
<path d="M3318 2624 c-36 -19 -35 -33 3 -70 17 -16 49 -55 70 -86 22 -32 42
-58 45 -58 9 0 1 164 -9 185 -23 45 -61 55 -109 29z"/>
<path d="M3531 2594 l-34 -15 7 -152 c8 -181 14 -205 66 -276 l39 -54 -6 179
c-7 228 -15 327 -28 330 -5 1 -25 -4 -44 -12z"/>
<path d="M5643 2090 c0 -25 2 -35 4 -22 2 12 2 32 0 45 -2 12 -4 2 -4 -23z"/>
</g>
</svg>
